<!-- <?xml version="1.0" standalone="no"?>
<!DOCTYPE svg PUBLIC "-//W3C//DTD SVG 20010904//EN"
 "http://www.w3.org/TR/2001/REC-SVG-20010904/DTD/svg10.dtd"> -->
<svg version="1.0" xmlns="http://www.w3.org/2000/svg" width="1188.000000pt" height="1280.000000pt" viewBox="0 0 1188.000000 1280.000000" 
preserveAspectRatio="xMidYMid meet">
  <g id="iconSvg" transform="translate(0.000000,1280.000000) scale(0.100000,-0.100000)" fill="#6dfe76" stroke="none">
    <path d="M6569 12796 c-2 -2 -49 -9 -104 -16 -248 -29 -492 -99 -708 -203
    -217 -104 -410 -232 -564 -371 -33 -31 -66 -56 -72 -56 -17 0 -23 62 -19 214
    2 85 -1 146 -6 146 -15 0 -171 -87 -265 -147 -297 -192 -572 -466 -780 -777
    -211 -316 -396 -746 -466 -1086 -29 -138 19 -124 -399 -116 l-361 7 -340 -297
    c-621 -541 -561 -483 -585 -566 -12 -40 -25 -84 -31 -98 -8 -20 -56 -47 -252
    -139 -635 -299 -1377 -680 -1441 -740 -62 -58 -125 -203 -157 -361 -22 -112
    -23 -164 -4 -243 20 -86 522 -1046 550 -1052 11 -2 175 -18 365 -35 782 -71
    1063 -99 1070 -107 15 -15 68 -291 58 -301 -5 -5 -256 -7 -634 -4 -343 3 -624
    1 -624 -3 0 -5 45 -136 100 -292 55 -156 100 -290 100 -297 0 -7 -45 -139
    -100 -291 -55 -153 -99 -279 -97 -281 1 -1 88 -7 192 -14 105 -7 219 -15 255
    -19 l64 -6 86 -262 c47 -144 88 -265 92 -269 4 -3 55 37 114 90 59 53 112 95
    118 93 6 -2 79 -96 161 -210 83 -113 155 -205 160 -203 6 1 127 137 269 301
    l260 299 0 56 1 55 147 5 c141 5 149 6 171 30 20 21 837 868 1026 1062 l55 58
    -83 339 c-46 186 -82 344 -79 351 2 7 93 45 201 85 109 40 200 75 203 78 8 8
    214 708 214 728 0 9 -96 234 -214 500 -117 266 -212 488 -209 494 7 18 465
    277 474 268 4 -4 -16 -103 -46 -218 l-55 -210 205 -457 205 -458 -161 -442
    c-88 -244 -165 -448 -170 -454 -5 -7 -69 -33 -142 -59 -73 -26 -136 -51 -140
    -55 -5 -4 24 -138 63 -298 45 -182 69 -296 63 -305 -9 -17 -1331 -1463 -1359
    -1489 -17 -15 -27 -15 -114 -2 l-95 15 -34 -38 c-18 -21 -86 -103 -150 -183
    -640 -798 -1003 -1587 -1118 -2430 -26 -192 -26 -687 0 -880 36 -265 110 -559
    193 -772 47 -119 142 -319 182 -383 29 -46 31 -48 36 -25 117 555 360 1063
    731 1532 49 62 159 184 244 270 l154 158 -38 56 c-281 424 -388 1035 -285
    1626 18 105 31 141 43 121 3 -4 12 -48 22 -98 114 -616 412 -1271 799 -1757
    33 -42 66 -77 73 -78 11 0 650 759 658 783 3 7 -31 62 -74 124 -273 388 -439
    792 -501 1216 -23 154 -28 411 -8 405 7 -3 47 -85 90 -184 395 -912 881 -1582
    1404 -1935 83 -56 240 -137 282 -145 l28 -6 159 407 159 407 -50 47 c-325 301
    -462 442 -624 641 -294 363 -498 737 -581 1067 -30 117 -53 269 -43 284 12 21
    26 3 84 -115 425 -860 1140 -1533 2045 -1921 298 -128 905 -294 905 -247 0 15
    99 955 105 999 l6 42 -82 42 c-241 120 -574 315 -829 484 -649 430 -1146 927
    -1372 1373 -53 105 -69 152 -51 152 4 0 70 -62 147 -138 953 -934 2064 -1588
    3186 -1876 203 -52 534 -115 545 -104 3 2 -7 39 -21 82 -54 172 -91 523 -102
    990 l-7 271 -130 27 c-991 210 -1864 542 -2485 946 -385 250 -710 551 -882
    816 -68 106 -47 103 97 -12 371 -296 743 -532 1180 -747 723 -357 1448 -553
    2395 -649 179 -19 477 -41 805 -61 1010 -62 1353 -111 1741 -250 l96 -34 -5
    34 c-13 78 -115 248 -251 420 -108 135 -533 559 -735 732 l-165 140 -420 7
    c-680 11 -1184 41 -1726 101 -818 92 -1571 251 -2082 441 -154 57 -351 152
    -400 194 -66 55 -45 65 47 25 294 -130 749 -231 1285 -285 425 -42 680 -50
    1893 -60 1180 -10 1579 -21 1907 -55 186 -20 399 -55 534 -90 55 -13 102 -23
    104 -20 12 11 -178 337 -310 532 -336 495 -748 864 -1068 956 -222 64 -460 88
    -956 94 -764 10 -1692 -55 -2859 -202 -300 -37 -329 -33 -155 23 1127 365
    2539 516 3896 417 457 -33 1020 -108 1287 -170 34 -8 63 -13 64 -11 8 8 -86
    240 -152 374 -139 284 -287 494 -489 698 -143 143 -224 210 -366 303 -304 200
    -626 318 -1040 382 -125 19 -185 23 -430 23 -217 0 -311 -4 -394 -17 -143 -22
    -149 -22 -137 2 16 30 144 90 246 116 178 45 345 58 705 52 196 -3 392 -11
    493 -22 l168 -17 274 152 c151 84 275 155 275 159 0 12 -82 85 -170 153 -459
    353 -1064 581 -1760 663 -275 32 -615 43 -833 27 -102 -8 -124 -1 -87 28 75
    58 389 119 770 150 296 25 242 6 543 184 147 87 265 162 262 166 -7 11 -155
    64 -263 94 -127 36 -317 73 -482 93 -199 24 -707 24 -930 -1 -245 -27 -595
    -84 -683 -112 -26 -8 -33 23 -11 48 55 61 370 163 634 203 25 4 54 12 65 18
    34 18 255 190 255 198 0 5 -10 11 -22 14 -221 51 -358 65 -629 65 -221 0 -424
    -15 -634 -46 -108 -15 -429 -78 -482 -93 -104 -30 -40 122 143 340 108 127
    105 119 41 119 -29 0 -56 -2 -58 -4z m-1160 -1556 c25 -13 37 -47 60 -165 42
    -212 46 -258 46 -520 0 -264 -5 -315 -46 -498 -45 -200 -158 -467 -246 -582
    l-39 -50 -159 -3 c-88 -1 -165 0 -173 3 -11 4 -8 16 14 53 110 184 181 448
    223 828 30 273 35 378 19 368 -7 -4 -178 -119 -380 -256 -212 -143 -376 -248
    -389 -248 -32 0 -59 28 -59 61 0 147 480 673 826 907 55 37 155 91 194 105 25
    9 90 8 109 -3z m-2659 -1959 c0 -10 -564 -660 -584 -673 -15 -10 -23 -1 -180
    206 -76 98 -136 185 -134 193 2 11 128 54 433 148 237 73 438 133 448 134 9 1
    17 -3 17 -8z m-1974 -1158 c-4 -10 -57 -151 -120 -313 -72 -187 -119 -295
    -127 -295 -13 0 -49 66 -189 352 -45 92 -61 136 -54 143 13 13 429 128 467
    129 23 1 27 -3 23 -16z"/>
  </g>

  <g id="cssSvg">
    <path d="M426.981,0H43.701C34.52,0,27.632,7.769,28.442,16.949L63.45,409.254c0.811,9.173,8.745,18.774,17.644,21.253
    l138.006,38.335c8.887,2.463,23.413,2.479,32.313,0.032l138.177-38.281c8.901-2.472,16.835-11.986,17.645-21.175l35.023-392.469
    C443.068,7.769,436.209,0,426.981,0z M360.51,141.611c-0.006,0.06-0.053,0.107-0.112,0.117c-0.06,0.01-0.118-0.021-0.144-0.077
    L252.13,185.96c-1.54,0.631-2.418,2.264-2.098,3.897c0.322,1.633,1.754,2.811,3.419,2.811h84.103c4.474,0,8.736,1.9,11.728,5.227
    c2.991,3.327,4.429,7.768,3.954,12.216l-13.141,123.273c-0.645,6.048-4.709,11.186-10.447,13.205l-89.269,31.41
    c-3.362,1.184-7.027,1.193-10.397,0.025l-88.852-30.778c-5.773-2-9.871-7.153-10.52-13.228l-5.957-55.828
    c-0.313-2.931,0.634-5.857,2.604-8.048c1.971-2.192,4.779-3.444,7.727-3.444h24.725c5.313,0,9.769,4.007,10.331,9.289l3.655,34.316
    l61.521,21.385l61.803-21.58l7.559-71.17H129.835c-5.297,0-9.746-3.985-10.327-9.25l-3.327-30.164
    c-0.508-4.601,2.088-8.982,6.366-10.745l111.837-46.109c1.269-0.523,1.99-1.868,1.724-3.214c-0.267-1.345-1.446-2.314-2.817-2.314
    H115.542c-3.545,0-6.518-2.677-6.888-6.201l-3.406-32.421c-0.205-1.951,0.428-3.898,1.741-5.357
    c1.313-1.458,3.184-2.291,5.146-2.291h246.379c1.973,0,3.852,0.842,5.166,2.313c1.314,1.472,1.938,3.434,1.715,5.394L360.51,141.611
    z"/>
  </g>
</svg>
