<!-- <?xml version="1.0" standalone="no"?>
<!DOCTYPE svg PUBLIC "-//W3C//DTD SVG 20010904//EN"
 "http://www.w3.org/TR/2001/REC-SVG-20010904/DTD/svg10.dtd"> -->
<svg version="1.0" xmlns="http://www.w3.org/2000/svg" width="1188.000000pt" height="1280.000000pt" viewBox="0 0 1188.000000 1280.000000" 
preserveAspectRatio="xMidYMid meet">
  <g id="iconSvg" transform="translate(0.000000,1280.000000) scale(0.100000,-0.100000)" fill="#6dfe76" stroke="none">
    <path d="M6569 12796 c-2 -2 -49 -9 -104 -16 -248 -29 -492 -99 -708 -203
    -217 -104 -410 -232 -564 -371 -33 -31 -66 -56 -72 -56 -17 0 -23 62 -19 214
    2 85 -1 146 -6 146 -15 0 -171 -87 -265 -147 -297 -192 -572 -466 -780 -777
    -211 -316 -396 -746 -466 -1086 -29 -138 19 -124 -399 -116 l-361 7 -340 -297
    c-621 -541 -561 -483 -585 -566 -12 -40 -25 -84 -31 -98 -8 -20 -56 -47 -252
    -139 -635 -299 -1377 -680 -1441 -740 -62 -58 -125 -203 -157 -361 -22 -112
    -23 -164 -4 -243 20 -86 522 -1046 550 -1052 11 -2 175 -18 365 -35 782 -71
    1063 -99 1070 -107 15 -15 68 -291 58 -301 -5 -5 -256 -7 -634 -4 -343 3 -624
    1 -624 -3 0 -5 45 -136 100 -292 55 -156 100 -290 100 -297 0 -7 -45 -139
    -100 -291 -55 -153 -99 -279 -97 -281 1 -1 88 -7 192 -14 105 -7 219 -15 255
    -19 l64 -6 86 -262 c47 -144 88 -265 92 -269 4 -3 55 37 114 90 59 53 112 95
    118 93 6 -2 79 -96 161 -210 83 -113 155 -205 160 -203 6 1 127 137 269 301
    l260 299 0 56 1 55 147 5 c141 5 149 6 171 30 20 21 837 868 1026 1062 l55 58
    -83 339 c-46 186 -82 344 -79 351 2 7 93 45 201 85 109 40 200 75 203 78 8 8
    214 708 214 728 0 9 -96 234 -214 500 -117 266 -212 488 -209 494 7 18 465
    277 474 268 4 -4 -16 -103 -46 -218 l-55 -210 205 -457 205 -458 -161 -442
    c-88 -244 -165 -448 -170 -454 -5 -7 -69 -33 -142 -59 -73 -26 -136 -51 -140
    -55 -5 -4 24 -138 63 -298 45 -182 69 -296 63 -305 -9 -17 -1331 -1463 -1359
    -1489 -17 -15 -27 -15 -114 -2 l-95 15 -34 -38 c-18 -21 -86 -103 -150 -183
    -640 -798 -1003 -1587 -1118 -2430 -26 -192 -26 -687 0 -880 36 -265 110 -559
    193 -772 47 -119 142 -319 182 -383 29 -46 31 -48 36 -25 117 555 360 1063
    731 1532 49 62 159 184 244 270 l154 158 -38 56 c-281 424 -388 1035 -285
    1626 18 105 31 141 43 121 3 -4 12 -48 22 -98 114 -616 412 -1271 799 -1757
    33 -42 66 -77 73 -78 11 0 650 759 658 783 3 7 -31 62 -74 124 -273 388 -439
    792 -501 1216 -23 154 -28 411 -8 405 7 -3 47 -85 90 -184 395 -912 881 -1582
    1404 -1935 83 -56 240 -137 282 -145 l28 -6 159 407 159 407 -50 47 c-325 301
    -462 442 -624 641 -294 363 -498 737 -581 1067 -30 117 -53 269 -43 284 12 21
    26 3 84 -115 425 -860 1140 -1533 2045 -1921 298 -128 905 -294 905 -247 0 15
    99 955 105 999 l6 42 -82 42 c-241 120 -574 315 -829 484 -649 430 -1146 927
    -1372 1373 -53 105 -69 152 -51 152 4 0 70 -62 147 -138 953 -934 2064 -1588
    3186 -1876 203 -52 534 -115 545 -104 3 2 -7 39 -21 82 -54 172 -91 523 -102
    990 l-7 271 -130 27 c-991 210 -1864 542 -2485 946 -385 250 -710 551 -882
    816 -68 106 -47 103 97 -12 371 -296 743 -532 1180 -747 723 -357 1448 -553
    2395 -649 179 -19 477 -41 805 -61 1010 -62 1353 -111 1741 -250 l96 -34 -5
    34 c-13 78 -115 248 -251 420 -108 135 -533 559 -735 732 l-165 140 -420 7
    c-680 11 -1184 41 -1726 101 -818 92 -1571 251 -2082 441 -154 57 -351 152
    -400 194 -66 55 -45 65 47 25 294 -130 749 -231 1285 -285 425 -42 680 -50
    1893 -60 1180 -10 1579 -21 1907 -55 186 -20 399 -55 534 -90 55 -13 102 -23
    104 -20 12 11 -178 337 -310 532 -336 495 -748 864 -1068 956 -222 64 -460 88
    -956 94 -764 10 -1692 -55 -2859 -202 -300 -37 -329 -33 -155 23 1127 365
    2539 516 3896 417 457 -33 1020 -108 1287 -170 34 -8 63 -13 64 -11 8 8 -86
    240 -152 374 -139 284 -287 494 -489 698 -143 143 -224 210 -366 303 -304 200
    -626 318 -1040 382 -125 19 -185 23 -430 23 -217 0 -311 -4 -394 -17 -143 -22
    -149 -22 -137 2 16 30 144 90 246 116 178 45 345 58 705 52 196 -3 392 -11
    493 -22 l168 -17 274 152 c151 84 275 155 275 159 0 12 -82 85 -170 153 -459
    353 -1064 581 -1760 663 -275 32 -615 43 -833 27 -102 -8 -124 -1 -87 28 75
    58 389 119 770 150 296 25 242 6 543 184 147 87 265 162 262 166 -7 11 -155
    64 -263 94 -127 36 -317 73 -482 93 -199 24 -707 24 -930 -1 -245 -27 -595
    -84 -683 -112 -26 -8 -33 23 -11 48 55 61 370 163 634 203 25 4 54 12 65 18
    34 18 255 190 255 198 0 5 -10 11 -22 14 -221 51 -358 65 -629 65 -221 0 -424
    -15 -634 -46 -108 -15 -429 -78 -482 -93 -104 -30 -40 122 143 340 108 127
    105 119 41 119 -29 0 -56 -2 -58 -4z m-1160 -1556 c25 -13 37 -47 60 -165 42
    -212 46 -258 46 -520 0 -264 -5 -315 -46 -498 -45 -200 -158 -467 -246 -582
    l-39 -50 -159 -3 c-88 -1 -165 0 -173 3 -11 4 -8 16 14 53 110 184 181 448
    223 828 30 273 35 378 19 368 -7 -4 -178 -119 -380 -256 -212 -143 -376 -248
    -389 -248 -32 0 -59 28 -59 61 0 147 480 673 826 907 55 37 155 91 194 105 25
    9 90 8 109 -3z m-2659 -1959 c0 -10 -564 -660 -584 -673 -15 -10 -23 -1 -180
    206 -76 98 -136 185 -134 193 2 11 128 54 433 148 237 73 438 133 448 134 9 1
    17 -3 17 -8z m-1974 -1158 c-4 -10 -57 -151 -120 -313 -72 -187 -119 -295
    -127 -295 -13 0 -49 66 -189 352 -45 92 -61 136 -54 143 13 13 429 128 467
    129 23 1 27 -3 23 -16z"/>
  </g>

  <g id="cssSvg" fill="#6dfe76">
    <path d="M282 114v114h182v-76H358V76h106V0H282zM500.2 74.2l.3 74.3 52.8.3 52.7.2v13H500v69h182V79H576V66h106V0H500zM719 74.5V149h105v13H719v69h181V79H795V66h105V0H719zM.4 336.2C.7 338 25.3 613.3 55.1 948s54.2 608.6 54.3 608.7 110.2 30.8 244.8 68.1l244.7 68 245.3-68c134.9-37.4 245.4-68.1 245.4-68.2.1 0 24.5-273.7 54.3-608.1s54.4-609.7 54.7-611.8l.6-3.7H-.1zm974.6 249c0 2.2-7.1 82.1-48.9 550.2-10.4 116.5-19.3 212.2-19.8 212.6-1.1 1-304.7 85-307.1 85-1.9 0-307-84.4-307.7-85.2-.2-.2-4.9-51.4-10.4-113.8-5.6-62.4-10.3-115.4-10.7-117.8l-.5-4.2h75.5c41.6 0 75.6.1 75.7.2 0 .2 2.4 27 5.4 59.6 2.9 32.7 5.5 59.5 5.7 59.7s37.7 10.5 83.5 22.8l83.1 22.5 83.3-22.5c45.9-12.4 83.6-22.7 83.8-22.8.4-.5 17-185.7 17.1-190.8v-3.7H263v-2.5c0-1.4-2.9-35.1-6.5-74.8s-6.5-72.3-6.5-72.5c0-.1 123.1-.2 273.5-.2H797v-2.5c0-1.3 2.9-35.3 6.5-75.3 3.6-40.1 6.5-73.7 6.5-74.6 0-1.5-22.1-1.6-286.7-1.8l-286.8-.3-6.1-68c-3.4-37.4-6.5-71-6.9-74.8l-.6-6.7H975z"/>
  </g>

  <g id="htmlSvg" fill="#6dfe76">
    <path d="M107.644 470.877L74.634 100.62h362.733l-33.046 370.199L255.778 512z"/>
    <path d="M256 480.522l120.03-33.276 28.24-316.352H256z"/>
    <g fill="#282C33">
      <path d="M256 268.217h-60.09l-4.15-46.501H256v-45.411H142.132l1.087 12.183 11.161 125.139H256zM256 386.153l-.198.053-50.575-13.656-3.233-36.217h-45.585l6.362 71.301 93.02 25.823.209-.058z"/>
    </g>
    <path d="M108.382 0h23.077v22.8h21.11V0h23.078v69.044H152.57v-23.12h-21.11v23.12h-23.076V0h-.002zM205.994 22.896h-20.315V0h63.72v22.896h-20.325v46.148h-23.078l-.002-46.148zM259.511 0h24.062l14.802 24.26L313.163 0h24.072v69.044h-22.982V34.822l-15.877 24.549h-.396l-15.889-24.549v34.222h-22.579V0zM348.72 0h23.084v46.222h32.453v22.822H348.72V0z"/>
    <g fill="#282C33">
      <path d="M255.844 268.217v45.41h55.917l-5.271 58.894-50.646 13.67v47.244l93.093-25.801.683-7.672 10.671-119.551 1.108-12.194h-12.237zM255.844 176.305V221.716h109.687l.911-10.207 2.069-23.021 1.086-12.183z"/>
    </g>
  </g>


</svg>
