<svg version="1.0" xmlns="http://www.w3.org/2000/svg" width="140px" height="100px" viewBox="0 0 140px 100px"  preserveAspectRatio="none">
  <g id="html">
    <polygon fill="#282C33" fill-rule="nonzero" points="345,2315 198,668 1811,668 1664,2314 1004,2497 "/>
    <polygon fill="#45474b" fill-rule="nonzero" points="1005,2357 1538,2209 1664,803 1005,803 "/>
    <path fill="#747475" fill-rule="nonzero" d="M1005 1414l-267 0 -18 -207 286 0 0 -202 -506 0 5 54 50 556 452 0 0 -202zm0 524l-1 0 -225 -61 -14 -161 -203 0 28 317 414 115 1 0 0 -210z"/>
    <path fill="#a8a8a9" fill-rule="nonzero" d="M348 221l103 0 0 101 94 0 0 -101 103 0 0 307 -103 0 0 -103 -94 0 0 103 -103 0 0 -307 0 0zm434 102l-90 0 0 -102 283 0 0 102 -90 0 0 205 -103 0 0 -205zm238 -102l107 0 66 108 66 -108 107 0 0 307 -102 0 0 -152 -71 109 -2 0 -71 -109 0 152 -100 0 0 -307 0 0zm397 0l103 0 0 206 144 0 0 101 -247 0 0 -307z"/>
    <path fill="#a8a8a9" fill-rule="nonzero" d="M1004 1414l0 202 249 0 -23 262 -225 61 0 210 414 -115 3 -34 47 -532 5 -54 -54 0 -415 0zm0 -409l0 202 488 0 4 -45 9 -102 5 -54 -506 0z"/>
  </g>

  <g id="css">
    <polygon fill="#282C33" fill-rule="nonzero" points="345,2315 198,668 1811,668 1664,2314 1004,2497 "/>
    <polygon fill="#45474b" fill-rule="nonzero" points="1005,2357 1538,2209 1664,803 1005,803 "/>
    <path fill="#747475" fill-rule="nonzero" d="M1005 1938l-1 0 -225 -61 -14 -161 -203 0 28 317 414 115 1 0 0 -210zm0 -524l0 -173 0 0 -193 69 -277 104 18 202 452 0 0 -202zm0 -207l-1 -202 -539 -2 31 211 509 -7 0 0z"/>
    <path fill="#a8a8a9" fill-rule="nonzero" d="M1004 1005l1 409 487 -207 4 -45 9 -102 5 -54 -506 0zm0 409l0 202 249 0 -23 262 -225 61 0 210 414 -115 3 -34 47 -532 5 -54 -54 0 -415 0z"/>
    <path fill="#a8a8a9" d="M1198 405l195 1c1,15 3,33 -1,47l-196 1 1 75 10 -2 29 0 29 0 29 0 29 0 159 -1 -1 -180 -206 -2 -1 -35 48 0 29 0 114 0 16 0 0 -29 0 -59 -283 -1c-4,18 -4,171 0,186zm-571 123l30 0 30 0 30 0 30 0 72 0 1 -66 -1 -11 -205 -1 0 -135 206 -1 1 -92 -297 -1c-3,12 -3,291 0,307l102 0zm242 -120l195 1c1,15 3,33 -1,47l-196 1 1 75 10 -2 29 0 29 0 29 0 29 0 159 -1 -1 -180 -206 -2 -1 -35 48 0 29 0 114 0 16 0 0 -29 0 -59 -283 -1c-4,18 -4,171 0,186z"/>
  </g>

  <g id="js">
    <polygon fill="#282C33" fill-rule="nonzero" points="345,2315 198,668 1811,668 1664,2314 1004,2497 "/>
    <polygon fill="#45474b" fill-rule="nonzero" points="1005,2357 1538,2209 1664,803 1005,803 "/>
    <path fill="#747475" fill-rule="nonzero" d="M865 1946l-1 0 -225 -61 -14 -161 -203 0 28 317 414 115 1 0 0 -210zm61 -959l-164 -12 -14 1149 158 48 21 -1185z"/>
    <path fill="#a8a8a9" fill-rule="nonzero" d="M1065 1449l-9 209 277 -49 -23 262 -225 61 0 210 414 -115 3 -34 47 -532 5 -54 -54 0 -434 42zm13 -249l-13 249 207 -19 15 -243 -209 13zm10 -201l-10 201 497 -31 18 -207 -505 38z"/>
    <path fill="#a8a8a9" d="M1023 407l195 1c1,15 3,33 -1,47l-196 1 1 75 10 -2 29 0 29 0 29 0 29 0 159 -1 -1 -180 -206 -2 -1 -35 48 0 29 0 114 0 16 0 0 -29 0 -59 -283 -1c-4,18 -4,171 0,186zm-151 120l-30 0 -30 0 -30 0 -30 0 -3 -77 136 -1 0 -135 0 -94 89 0c3,12 3,291 0,307l-102 0z"/>
  </g>

  <g id="git" fill="#282C33">
    <path d="M251.172 116.594L139.4 4.828c-6.433-6.437-16.873-6.437-23.314 0l-23.21 23.21 29.443 29.443c6.842-2.312 14.688-.761 20.142 4.693 5.48 5.489 7.02 13.402 4.652 20.266l28.375 28.376c6.865-2.365 14.786-.835 20.269 4.657 7.663 7.66 7.663 20.075 0 27.74-7.665 7.666-20.08 7.666-27.749 0-5.764-5.77-7.188-14.235-4.27-21.336l-26.462-26.462-.003 69.637a19.82 19.82 0 0 1 5.188 3.71c7.663 7.66 7.663 20.076 0 27.747-7.665 7.662-20.086 7.662-27.74 0-7.663-7.671-7.663-20.086 0-27.746a19.654 19.654 0 0 1 6.421-4.281V94.196a19.378 19.378 0 0 1-6.421-4.281c-5.806-5.798-7.202-14.317-4.227-21.446L81.47 39.442l-76.64 76.635c-6.44 6.443-6.44 16.884 0 23.322l111.774 111.768c6.435 6.438 16.873 6.438 23.316 0l111.251-111.249c6.438-6.44 6.438-16.887 0-23.324"/>
  </g>

  <g id="ts">
    <polygon fill="#282C33" fill-rule="nonzero" points="345,2315 198,668 1811,668 1664,2314 1004,2497 "/>
    <polygon fill="#45474b" fill-rule="nonzero" points="1005,2357 1538,2209 1664,803 1005,803 "/>
    <polygon fill="#747475" fill-rule="nonzero" points="740,986 576,975 561,2124 720,2171 "/>
    <polygon fill="#747475" fill-rule="nonzero" points="342,936 350,1104 951,1158 948,983 "/>
    <path fill="#a8a8a9" fill-rule="nonzero" d="M1065 1449l-9 209 277 -49 -23 262 -225 61 0 210 414 -115 3 -34 47 -532 5 -54 -54 0 -434 42zm13 -249l-13 249 207 -19 15 -243 -209 13zm10 -201l-10 201 497 -31 18 -207 -505 38z"/>
    <polygon fill="#a8a8a9" points="743,221 712,221 682,221 652,221 622,221 619,298 755,299 755,434 755,528 844,528 845,297 970,296 970,221 "/>
    <path fill="#a8a8a9" d="M1023 407l195 1c1,15 3,33 -1,47l-196 1 1 75 10 -2 29 0 29 0 29 0 29 0 159 -1 -1 -180 -206 -2 -1 -35 48 0 29 0 114 0 16 0 0 -29 0 -59 -283 -1c-4,18 -4,171 0,186z"/>
  </g>

  <g id="styled">
    <path fill="#282C33" d="M16.214 6.762l-.075.391c-.116.741-.074.953.244 1.228l.307.254-.318 1.418c-.19.846-.423 1.555-.571 1.788-.127.201-.275.497-.307.656-.053.19-.233.381-.508.55-.243.138-.72.508-1.058.805-.27.243-.456.392-.557.456l-.33.261c-.106.17-.166.307-.189.411-.023.107-.01.178.024.23.033.05.09.085.168.107a.954.954 0 00.282.023 3 3 0 00.632-.112c.07-.019.125-.037.173-.053.074-.091.245-.263.548-.562.804-.793 1.111-1.227.794-1.11-.117.042-.064-.064.137-.276.424-.413.667-1.037 1.175-2.994.402-1.545.402-1.567.698-1.567.139 0 .532.024.532.024V6.762h-.902zm3.839 3.165c-.064 0-.17.096-.233.202-.116.19.021.306 1.767 1.396 1.037.657 1.873 1.217 1.852 1.26-.021.031-.868.582-1.883 1.217-1.842 1.142-1.852 1.153-1.683 1.386.212.275 0 .37 2.391-1.122L24 13.155v-.836l-1.937-1.196c-1.047-.656-1.957-1.185-2.01-1.196zm-16.085.117c-.053 0-.963.54-2.01 1.185L0 12.425v.836l1.947 1.217c1.08.666 1.99 1.217 2.032 1.217.042 0 .127-.096.212-.212.127-.201.02-.286-1.768-1.418C.72 12.996.54 12.848.71 12.732c.106-.074.91-.572 1.778-1.111 1.979-1.217 1.873-1.133 1.714-1.387-.063-.105-.17-.2-.233-.19zm8.684.023c-.292-.002-.92.443-2.8 1.978-.081.193-.088.326-.051.412.024.059.068.1.129.13.06.03.138.048.224.055.171.015.373-.012.536-.044l.11-.025a.386.386 0 01.144-.118c.116-.064.603-.508 1.09-.984.857-.868 1.058-1.26.709-1.387a.24.24 0 00-.09-.017zm2.196.603c-.257.007-.72.305-1.513.938-.398.323-.65.497-.785.533l-.524.414c-.197.36-.226.583-.174.706a.25.25 0 00.138.134.644.644 0 00.24.045 2.18 2.18 0 00.58-.085 3.466 3.466 0 00.291-.092l.029-.012.053-.028c.1-.129.33-.372.618-.652.91-.878 1.375-1.502 1.28-1.735-.043-.113-.117-.17-.233-.166zm-2.424 1.08c-.074.008-.24.136-.539.398-.432.382-.903.602-1.066.504a3.97 3.97 0 01-.114.024c-.166.033-.373.06-.558.045a.708.708 0 01-.252-.063.337.337 0 01-.168-.17c-.037-.09-.037-.202.005-.345l-.65.534-1.471 1.217V15.867l4.82-3.797a.41.41 0 01.016-.123c.037-.134.035-.202-.023-.196zm2.074.639c-.073 0-.195.103-.39.31-.265.283-.682.557-.903.613l-.034.018a2.191 2.191 0 01-.11.042c-.06.02-.138.044-.228.068-.18.049-.404.094-.604.089a.732.732 0 01-.275-.054.344.344 0 01-.184-.18c-.058-.139-.035-.334.092-.611L7.61 16.033v1.205h1.868l3.962-3.112c.103-.114.258-.27.467-.465.56-.519.687-.698.687-.963 0-.206-.023-.31-.096-.31zm.943 1.95l-.339.338c-.19.18-.529.402-.761.497l-.046.02-.003.005-.01.01c-.009.007-.013.008-.02.011a3.432 3.432 0 01-.282.093 3.058 3.058 0 01-.65.115 1.035 1.035 0 01-.31-.027.364.364 0 01-.218-.144c-.048-.074-.062-.173-.035-.295a1.11 1.11 0 01.095-.25l-3.197 2.526h4.252l.508-.582c.698-.814 1.016-1.396 1.016-1.894z"/>
  </g>

  <g id="react">
    <path fill="#282C33" d="M12 9.861A2.139 2.139 0 1 0 12 14.139 2.139 2.139 0 1 0 12 9.861zM6.008 16.255l-.472-.12C2.018 15.246 0 13.737 0 11.996s2.018-3.25 5.536-4.139l.472-.119.133.468a23.53 23.53 0 0 0 1.363 3.578l.101.213-.101.213a23.307 23.307 0 0 0-1.363 3.578l-.133.467zM5.317 8.95c-2.674.751-4.315 1.9-4.315 3.046 0 1.145 1.641 2.294 4.315 3.046a24.95 24.95 0 0 1 1.182-3.046A24.752 24.752 0 0 1 5.317 8.95zM17.992 16.255l-.133-.469a23.357 23.357 0 0 0-1.364-3.577l-.101-.213.101-.213a23.42 23.42 0 0 0 1.364-3.578l.133-.468.473.119c3.517.889 5.535 2.398 5.535 4.14s-2.018 3.25-5.535 4.139l-.473.12zm-.491-4.259c.48 1.039.877 2.06 1.182 3.046 2.675-.752 4.315-1.901 4.315-3.046 0-1.146-1.641-2.294-4.315-3.046a24.788 24.788 0 0 1-1.182 3.046zM5.31 8.945l-.133-.467C4.188 4.992 4.488 2.494 6 1.622c1.483-.856 3.864.155 6.359 2.716l.34.349-.34.349a23.552 23.552 0 0 0-2.422 2.967l-.135.193-.235.02a23.657 23.657 0 0 0-3.785.61l-.472.119zm1.896-6.63c-.268 0-.505.058-.705.173-.994.573-1.17 2.565-.485 5.253a25.122 25.122 0 0 1 3.233-.501 24.847 24.847 0 0 1 2.052-2.544c-1.56-1.519-3.037-2.381-4.095-2.381zM16.795 22.677c-.001 0-.001 0 0 0-1.425 0-3.255-1.073-5.154-3.023l-.34-.349.34-.349a23.53 23.53 0 0 0 2.421-2.968l.135-.193.234-.02a23.63 23.63 0 0 0 3.787-.609l.472-.119.134.468c.987 3.484.688 5.983-.824 6.854a2.38 2.38 0 0 1-1.205.308zm-4.096-3.381c1.56 1.519 3.037 2.381 4.095 2.381h.001c.267 0 .505-.058.704-.173.994-.573 1.171-2.566.485-5.254a25.02 25.02 0 0 1-3.234.501 24.674 24.674 0 0 1-2.051 2.545zM18.69 8.945l-.472-.119a23.479 23.479 0 0 0-3.787-.61l-.234-.02-.135-.193a23.414 23.414 0 0 0-2.421-2.967l-.34-.349.34-.349C14.135 1.778 16.515.767 18 1.622c1.512.872 1.812 3.37.824 6.855l-.134.468zM14.75 7.24c1.142.104 2.227.273 3.234.501.686-2.688.509-4.68-.485-5.253-.988-.571-2.845.304-4.8 2.208A24.849 24.849 0 0 1 14.75 7.24zM7.206 22.677A2.38 2.38 0 0 1 6 22.369c-1.512-.871-1.812-3.369-.823-6.854l.132-.468.472.119c1.155.291 2.429.496 3.785.609l.235.02.134.193a23.596 23.596 0 0 0 2.422 2.968l.34.349-.34.349c-1.898 1.95-3.728 3.023-5.151 3.023zm-1.19-6.427c-.686 2.688-.509 4.681.485 5.254.987.563 2.843-.305 4.8-2.208a24.998 24.998 0 0 1-2.052-2.545 24.976 24.976 0 0 1-3.233-.501zM12 16.878c-.823 0-1.669-.036-2.516-.106l-.235-.02-.135-.193a30.388 30.388 0 0 1-1.35-2.122 30.354 30.354 0 0 1-1.166-2.228l-.1-.213.1-.213a30.3 30.3 0 0 1 1.166-2.228c.414-.716.869-1.43 1.35-2.122l.135-.193.235-.02a29.785 29.785 0 0 1 5.033 0l.234.02.134.193a30.006 30.006 0 0 1 2.517 4.35l.101.213-.101.213a29.6 29.6 0 0 1-2.517 4.35l-.134.193-.234.02c-.847.07-1.694.106-2.517.106zm-2.197-1.084c1.48.111 2.914.111 4.395 0a29.006 29.006 0 0 0 2.196-3.798 28.585 28.585 0 0 0-2.197-3.798 29.031 29.031 0 0 0-4.394 0 28.477 28.477 0 0 0-2.197 3.798 29.114 29.114 0 0 0 2.197 3.798z"/>
  </g>

  <g id="figma">
    <path fill="#282C33" d="M1075 1615l-448 0c-1,0 -2,0 -2,1 0,1 -1,1 -2,1 0,0 -1,0 -2,1 -1,0 -1,0 -2,0 -73,13 -79,12 -153,49 -20,10 -58,39 -74,55 -103,104 -146,228 -113,379 11,53 49,130 88,169 15,15 22,25 43,42 70,56 154,88 240,93l48 0c38,-2 76,-10 112,-22 135,-47 231,-161 258,-299 5,-25 8,-11 8,-36l0 -432z"/>
    <path fill="#282C33" d="M627 1615l448 0 0 -264 0 -111c0,-44 0,-88 0,-132 0,-30 4,-109 -2,-133l-542 1c-68,0 -150,43 -196,89 -45,45 -82,113 -91,193l0 71c1,5 1,9 2,14 9,61 32,125 75,168 10,10 9,12 20,21 24,18 31,31 71,51 40,20 84,34 132,34 28,0 55,0 83,0z"/>
    <path fill="#282C33" d="M531 976l542 -1 0 -641 -7 0c-178,0 -356,0 -534,0 -29,2 -58,8 -95,23 -105,42 -175,134 -191,249 -1,6 -2,12 -2,18l0 63c14,151 128,273 275,287l13 3z"/>
    <path fill="#45474b" d="M1073 975l268 1 109 0c89,0 140,4 207,-21 55,-20 99,-55 133,-98 34,-43 58,-95 66,-162 0,-2 0,-4 1,-6l0 -68c-5,-48 -19,-92 -35,-121 -39,-72 -107,-132 -188,-154 -35,-10 -58,-12 -104,-12 -152,0 -305,0 -457,0l0 641z"/>
    <path fill="#45474b" d="M1075 1240l0 111 11 43c4,15 9,28 16,41 13,28 26,47 44,70 15,19 40,40 60,54 22,16 47,28 75,39 51,19 143,25 203,8 62,-17 105,-43 145,-83 38,-38 66,-83 81,-144 16,-61 11,-146 -9,-200 -31,-82 -87,-142 -164,-178 -14,-6 -26,-10 -42,-15 -8,-3 -14,-4 -23,-6l-21 -5c0,0 -1,0 -2,-1l-109 0c-6,4 -40,9 -51,13 -95,32 -170,103 -201,197l-10 39c0,1 -1,6 -1,7l-3 8z"/>
  </g>

  <g id="dom">
    <path fill="#282C33" d="M51 402l0 1821c0,68 37,126 98,126l519 0c108,0 98,-149 98,-220l245 0c21,83 158,188 284,188 245,0 399,-316 255,-534 -134,-202 -357,-196 -497,-29 -67,80 3,60 -286,60l0 -366 646 0c18,84 147,188 245,188 103,0 192,-9 269,-110 39,-51 88,-145 81,-232 -8,-102 -37,-165 -93,-225 -141,-151 -356,-129 -465,22 -17,24 -28,65 -57,65l-627 0 0 -366c295,0 96,8 265,125 246,171 499,-41 499,-272 0,-276 -289,-446 -496,-278 -164,133 12,132 -268,132 0,-78 15,-241 -98,-241l-519 0c-73,0 -98,67 -98,147z"/>
  </g>

  <g id="RV" transform="translate(0.000000,40.000000) scale(0.04000,-0.040000)" stroke="none">
    <path fill="#00fd11"  d="M16 991 c-3 -5 81 -229 188 -498 l194 -488 83 0 84 0 162 415 c89
    228 163 421 163 428 0 9 -11 12 -37 10 l-37 -3 -152 -385 -153 -385 -32 0 -32
    0 -181 455 -182 455 -31 3 c-17 2 -34 -1 -37 -7z"/>
    <path fill="#d7fe6c" d="M577 661 l-137 -340 19 -48 19 -48 22 50 c12 28 73 180 136 340 63
    159 120 295 126 302 8 10 52 13 172 13 189 0 230 -10 302 -73 61 -54 84 -104
    84 -187 0 -86 -35 -152 -103 -197 -68 -46 -104 -53 -263 -53 l-141 0 -11 -25
    c-7 -14 -12 -30 -12 -35 0 -6 53 -10 125 -10 l126 0 115 -175 115 -175 40 0
    c32 0 40 3 36 14 -3 8 -51 83 -107 166 -56 83 -103 157 -106 165 -4 9 7 17 33
    24 53 14 126 64 163 111 43 54 63 114 64 195 0 58 -5 81 -27 128 -33 66 -96
    125 -176 164 -55 27 -61 27 -266 31 l-211 4 -137 -341z"/>
  </g>

  <g id="academy">
    <path fill="#51844a" d="M386 993l2 85 57 4 3 46 1153 1 10 -47 55 0 0 -90c-87,-48 -504,-369 -635,-457 -57,21 -537,395 -644,458z"/>
    <path fill="#51844a" d="M1763 1295l90 18 -11 90c-13,-24 -14,-38 -34,-63l-46 -45zm0 0l-73 -18c-6,133 58,137 140,181l-34 118c-14,-74 -60,-176 -126,-157 -21,142 52,156 104,202 -22,40 -37,71 -64,94 9,-83 -16,-166 -92,-187 -27,127 -5,156 67,222l-50 53c-1,2 -4,5 -5,7 -1,2 -3,4 -5,7 39,-14 58,-33 74,-59 54,4 92,8 134,-20 24,-16 64,-53 66,-96 -28,-3 -37,-5 -66,-2 -62,5 -38,10 -54,-3 58,-52 157,13 191,-162 -70,0 -85,10 -134,38 24,-95 38,-41 102,-94 43,-36 54,-68 56,-141 -62,2 -98,38 -126,65 6,-71 20,-8 88,-87 33,-38 38,-81 31,-139l-81 34c39,-34 92,-90 59,-185 -73,28 -93,50 -117,129 -30,-105 35,-235 -96,-279 -74,141 55,170 75,274 -54,-46 -56,-61 -159,-64 7,49 29,83 56,108 39,37 73,27 119,44l8 83c-51,-71 -48,-95 -170,-108 6,33 11,60 28,86 9,12 17,20 25,29l27 28z"/>
    <path fill="#51844a" d="M260 1295l-9 9c-79,76 -29,30 -73,99l-8 -88 89 -19zm0 0c1,-2 4,-6 4,-5 0,0 59,-46 76,-138 -121,13 -119,36 -169,108l5 -83c35,-13 160,-10 176,-152 -69,2 -97,8 -142,49 -2,1 -4,4 -5,5l-11 10c16,-96 34,-58 73,-121 28,-44 26,-114 -1,-156 -147,106 -49,124 -93,282 -24,-78 -45,-101 -118,-129 -33,99 20,149 59,187l-78 -40c-11,80 6,142 74,180 44,25 40,4 43,50 -28,-27 -65,-63 -127,-65 12,214 127,108 158,234 -44,-27 -67,-38 -133,-38 35,176 134,113 191,162 -24,20 -21,-5 -119,5 4,103 123,123 200,116 17,26 35,45 74,59 -16,-28 -37,-41 -57,-69 77,-57 86,-107 66,-219 -74,21 -102,103 -92,187 -26,-23 -43,-55 -64,-95l11 -8c67,-50 110,-74 93,-194 -55,-15 -111,61 -122,156l-41 -116c82,-39 151,-55 144,-180l-73 16z"/>
    <path fill="#51844a" d="M366 1896l1295 0 3 -59c-2,-1 -5,-2 -7,-3 -2,-1 -5,-2 -7,-3 -2,-1 -5,-2 -7,-2l-29 -8c-1,-3 -5,-1 -7,-2l0 -64 -1185 0 -1 71 -56 7 2 63z"/>
    <path fill="#51844a" d="M1538 1207c13,-51 20,17 16,-61l-184 1c-11,61 4,22 14,54l3 401c1,160 -20,43 -19,134l188 1c0,-36 0,-17 -8,-38 -27,-73 -12,-313 -12,-414 0,-25 -3,-55 2,-79z"/>
    <path fill="#51844a" d="M1100 1277c-1,-125 29,-80 16,-131l-181 2c-9,54 4,29 11,48 12,32 5,386 5,443 0,87 -20,29 -19,99l188 1c0,-35 0,-17 -8,-37 -27,-75 -12,-320 -13,-423z"/>
    <path fill="#51844a" d="M666 1593c1,-108 -16,-319 14,-412l2 -35 -181 1c-5,30 -3,13 3,33 31,94 13,309 14,422 1,126 -20,75 -20,134l188 2c0,-46 -9,-22 -18,-64 -4,-18 -2,-60 -2,-80z"/>
    <path fill="#44474b" d="M1763 1295l46 45c20,24 21,39 34,63l11 -90 -90 -18z"/>
    <path fill="#44474b" d="M260 1295l-89 19 8 88c44,-69 -6,-22 73,-99l9 -9z"/>
  </g>

  <g id="incubator">
    <circle fill="#1F1B20" cx="1024" cy="1212" r="682"/>
    <circle fill="#FDFCFC" cx="1024" cy="1212" r="670"/>
    <ellipse fill="#E3350F" cx="756" cy="793" rx="80" ry="81"/>
    <path fill="#1F1B20" d="M719 938l76 0 0 593 -76 0 0 -593zm555 0l76 0 0 593 -76 0 0 -593zm-322 142l0 -142 322 460 0 133 -322 -451zm-76 -142l76 0 0 593 -76 0 0 -593z"/>
  </g>

  <g id="rsschool">
    <path fill="black" d="M1114 1270c72,-33 82,128 33,147 -39,15 -61,-13 -65,-52 -4,-46 0,-80 32,-95zm184 -55c-2,-4 5,-5 -12,-9 -2,8 -4,6 3,6l9 3c3,4 -3,1 8,8l42 12 -13 25c-5,9 -8,17 -11,28 -29,108 27,221 147,191 40,-10 56,-35 72,-71l1 71 179 0 0 -67 -109 0 0 -204 -68 0 -2 70c-25,-47 -34,-61 -89,-75 8,0 0,1 2,-7 8,-3 0,4 9,-3 12,-10 4,-1 6,-10 -8,3 1,-5 -8,3 -12,10 -3,2 -7,10 -20,6 -38,25 -72,32 -46,9 -54,-7 -87,-13zm123 54c73,-30 80,129 31,149 -36,14 -59,-15 -63,-52 -5,-42 -2,-83 32,-97zm-920 58c-22,-16 -90,-32 -97,-39 -27,-26 39,-64 52,1l52 -4 -7 42zm-177 62l0 13c12,27 10,38 28,58 19,21 36,15 56,25l41 0c33,-19 26,8 72,-51 16,22 22,31 46,41l21 8c1,0 2,1 3,2l43 0c25,-13 32,-4 56,-30 16,-18 26,-33 30,-66l-58 -19c-14,28 -12,55 -53,51 -61,-7 -50,-186 27,-151 13,6 17,16 21,33l62 -16c-30,-113 -145,-106 -201,-30 -11,-17 -13,-29 -29,-39 -36,-24 -123,-25 -149,30 -22,46 6,87 31,102 31,18 76,15 90,48 -2,26 -16,37 -41,31 -25,-6 -20,-20 -31,-44l-65 4zm551 -87c-7,-14 -4,-75 -4,-92l-68 0 1 268 67 1 3 -112 76 1c8,31 1,77 4,111l67 0 1 -67c16,27 22,44 49,58 24,13 62,16 91,10 114,-24 117,-247 0,-273 -30,-7 -64,-4 -89,10 -32,17 -31,27 -50,58l-1 -66 -67 0 -2 93 -76 1zm-465 -362c24,0 66,-8 64,29 -2,32 -38,27 -63,27l0 -56zm-69 215l70 1 0 -110c32,2 32,19 44,46 11,24 20,43 29,65l81 0c-14,-41 -40,-96 -69,-119 22,-16 42,-23 48,-57 7,-36 -6,-69 -24,-81 -30,-21 -139,-17 -179,-13l0 269zm946 51c-3,-7 0,-1 -5,-8 -1,-2 -4,-5 -5,-7 -13,-17 -23,-32 -28,-57 -8,-36 -2,-73 9,-106 -8,-4 5,-6 -5,0l-7 6c-18,-63 -112,-42 -124,-84 14,-37 50,-24 58,15l64 -4c14,-86 -130,-108 -172,-47 -28,40 -11,88 17,107 33,22 71,20 96,47 1,29 -10,44 -37,39 -25,-5 -25,-22 -34,-43l-63 3c-5,86 82,106 142,89 28,-8 35,-21 49,-36 6,38 23,78 46,87zm161 -165c-1,42 -20,12 -38,24 -6,4 -9,10 -12,18 28,33 74,-6 77,-37 2,-25 -9,-42 -30,-41 -22,1 -33,22 -48,9 12,-35 38,8 45,-36 -30,-24 -68,12 -69,41 -1,57 56,17 77,22zm-127 6c7,19 19,36 29,52 27,45 -5,27 -18,25 -8,12 -10,9 -14,23 24,34 67,6 69,-28 2,-25 -29,-74 -43,-91 -13,6 -14,9 -24,18zm-48 -54c11,-6 96,-137 202,-74 56,34 72,105 51,176 -7,24 -20,40 -24,57 34,-21 76,-182 -22,-239 -79,-46 -184,17 -206,80zm201 191c13,-7 20,-17 27,-32l-15 13c-5,6 -2,1 -6,7 -5,8 -3,3 -5,12zm-201 -191c-4,3 -6,-8 -14,25 5,-5 4,0 10,-12 4,-7 2,-5 4,-13z"/>
  </g>

  <g id="telegram">
    <path fill="#51844a" d="M24 4A20 20 0 1 0 24 44A20 20 0 1 0 24 4Z"/>
    <path fill="#fff" d="M33.95,15l-3.746,19.126c0,0-0.161,0.874-1.245,0.874c-0.576,0-0.873-0.274-0.873-0.274l-8.114-6.733 l-3.97-2.001l-5.095-1.355c0,0-0.907-0.262-0.907-1.012c0-0.625,0.933-0.923,0.933-0.923l21.316-8.468 c-0.001-0.001,0.651-0.235,1.126-0.234C33.667,14,34,14.125,34,14.5C34,14.75,33.95,15,33.95,15z"/>
    <path fill="#03520a" d="M23,30.505l-3.426,3.374c0,0-0.149,0.115-0.348,0.12c-0.069,0.002-0.143-0.009-0.219-0.043 l0.964-5.965L23,30.505z"/>
    <path fill="#03520a" d="M29.897,18.196c-0.169-0.22-0.481-0.26-0.701-0.093L16,26c0,0,2.106,5.892,2.427,6.912 c0.322,1.021,0.58,1.045,0.58,1.045l0.964-5.965l9.832-9.096C30.023,18.729,30.064,18.416,29.897,18.196z"/>
  </g>

  <g id="instagram">
    <path fill="#ffffff" d="M 16 3 C 8.8324839 3 3 8.8324839 3 16 L 3 34 C 3 41.167516 8.8324839 47 16 47 L 34 47 C 41.167516 47 47 41.167516 47 34 L 47 16 C 47 8.8324839 41.167516 3 34 3 L 16 3 z M 16 5 L 34 5 C 40.086484 5 45 9.9135161 45 16 L 45 34 C 45 40.086484 40.086484 45 34 45 L 16 45 C 9.9135161 45 5 40.086484 5 34 L 5 16 C 5 9.9135161 9.9135161 5 16 5 z M 37 11 A 2 2 0 0 0 35 13 A 2 2 0 0 0 37 15 A 2 2 0 0 0 39 13 A 2 2 0 0 0 37 11 z M 25 14 C 18.936712 14 14 18.936712 14 25 C 14 31.063288 18.936712 36 25 36 C 31.063288 36 36 31.063288 36 25 C 36 18.936712 31.063288 14 25 14 z M 25 16 C 29.982407 16 34 20.017593 34 25 C 34 29.982407 29.982407 34 25 34 C 20.017593 34 16 29.982407 16 25 C 16 20.017593 20.017593 16 25 16 z"/>
  </g>

  <g id="whatsapp">
    <path fill="#fff" d="M4.868,43.303l2.694-9.835C5.9,30.59,5.026,27.324,5.027,23.979C5.032,13.514,13.548,5,24.014,5c5.079,0.002,9.845,1.979,13.43,5.566c3.584,3.588,5.558,8.356,5.556,13.428c-0.004,10.465-8.522,18.98-18.986,18.98c-0.001,0,0,0,0,0h-0.008c-3.177-0.001-6.3-0.798-9.073-2.311L4.868,43.303z"/>
    <path fill="#fff" d="M4.868,43.803c-0.132,0-0.26-0.052-0.355-0.148c-0.125-0.127-0.174-0.312-0.127-0.483l2.639-9.636c-1.636-2.906-2.499-6.206-2.497-9.556C4.532,13.238,13.273,4.5,24.014,4.5c5.21,0.002,10.105,2.031,13.784,5.713c3.679,3.683,5.704,8.577,5.702,13.781c-0.004,10.741-8.746,19.48-19.486,19.48c-3.189-0.001-6.344-0.788-9.144-2.277l-9.875,2.589C4.953,43.798,4.911,43.803,4.868,43.803z"/>
    <path fill="#cfd8dc" d="M24.014,5c5.079,0.002,9.845,1.979,13.43,5.566c3.584,3.588,5.558,8.356,5.556,13.428c-0.004,10.465-8.522,18.98-18.986,18.98h-0.008c-3.177-0.001-6.3-0.798-9.073-2.311L4.868,43.303l2.694-9.835C5.9,30.59,5.026,27.324,5.027,23.979C5.032,13.514,13.548,5,24.014,5 M24.014,42.974C24.014,42.974,24.014,42.974,24.014,42.974C24.014,42.974,24.014,42.974,24.014,42.974 M24.014,42.974C24.014,42.974,24.014,42.974,24.014,42.974C24.014,42.974,24.014,42.974,24.014,42.974 M24.014,4C24.014,4,24.014,4,24.014,4C12.998,4,4.032,12.962,4.027,23.979c-0.001,3.367,0.849,6.685,2.461,9.622l-2.585,9.439c-0.094,0.345,0.002,0.713,0.254,0.967c0.19,0.192,0.447,0.297,0.711,0.297c0.085,0,0.17-0.011,0.254-0.033l9.687-2.54c2.828,1.468,5.998,2.243,9.197,2.244c11.024,0,19.99-8.963,19.995-19.98c0.002-5.339-2.075-10.359-5.848-14.135C34.378,6.083,29.357,4.002,24.014,4L24.014,4z"/>
    <path fill="#51844a" d="M35.176,12.832c-2.98-2.982-6.941-4.625-11.157-4.626c-8.704,0-15.783,7.076-15.787,15.774c-0.001,2.981,0.833,5.883,2.413,8.396l0.376,0.597l-1.595,5.821l5.973-1.566l0.577,0.342c2.422,1.438,5.2,2.198,8.032,2.199h0.006c8.698,0,15.777-7.077,15.78-15.776C39.795,19.778,38.156,15.814,35.176,12.832z"/>
    <path fill="#fff" fill-rule="evenodd" d="M19.268,16.045c-0.355-0.79-0.729-0.806-1.068-0.82c-0.277-0.012-0.593-0.011-0.909-0.011c-0.316,0-0.83,0.119-1.265,0.594c-0.435,0.475-1.661,1.622-1.661,3.956c0,2.334,1.7,4.59,1.937,4.906c0.237,0.316,3.282,5.259,8.104,7.161c4.007,1.58,4.823,1.266,5.693,1.187c0.87-0.079,2.807-1.147,3.202-2.255c0.395-1.108,0.395-2.057,0.277-2.255c-0.119-0.198-0.435-0.316-0.909-0.554s-2.807-1.385-3.242-1.543c-0.435-0.158-0.751-0.237-1.068,0.238c-0.316,0.474-1.225,1.543-1.502,1.859c-0.277,0.317-0.554,0.357-1.028,0.119c-0.474-0.238-2.002-0.738-3.815-2.354c-1.41-1.257-2.362-2.81-2.639-3.285c-0.277-0.474-0.03-0.731,0.208-0.968c0.213-0.213,0.474-0.554,0.712-0.831c0.237-0.277,0.316-0.475,0.474-0.791c0.158-0.317,0.079-0.594-0.04-0.831C20.612,19.329,19.69,16.983,19.268,16.045z" clip-rule="evenodd"/>
  </g>

  <g id="linked">
    <path fill="#51844a" d="M42,37c0,2.762-2.238,5-5,5H11c-2.761,0-5-2.238-5-5V11c0-2.762,2.239-5,5-5h26c2.762,0,5,2.238,5,5V37z"/>
    <path fill="#FFF" d="M12 19H17V36H12zM14.485 17h-.028C12.965 17 12 15.888 12 14.499 12 13.08 12.995 12 14.514 12c1.521 0 2.458 1.08 2.486 2.499C17 15.887 16.035 17 14.485 17zM36 36h-5v-9.099c0-2.198-1.225-3.698-3.192-3.698-1.501 0-2.313 1.012-2.707 1.99C24.957 25.543 25 26.511 25 27v9h-5V19h5v2.616C25.721 20.5 26.85 19 29.738 19c3.578 0 6.261 2.25 6.261 7.274L36 36 36 36z"/>
  </g>

  <g id="address">
    <path fill="#51844a" d="M789 871c0,-124 87,-214 181,-214l49 0c93,0 181,91 181,214 0,91 -90,190 -181,190l-49 0c-91,0 -181,-98 -181,-190zm-247 -16c0,157 196,501 297,651 21,32 38,62 61,96 56,84 49,86 112,86 41,0 194,-269 221,-315 66,-109 136,-240 178,-358 124,-354 -155,-605 -391,-605l-49 0c-226,0 -429,216 -429,445z"/>
    <path fill="#51844a" d="M418 1704c0,189 317,272 519,272l115 0c413,0 673,-249 422,-422 -34,-24 -133,-69 -183,-73 -12,43 -47,60 -58,107 94,2 411,135 31,238 -253,68 -724,20 -724,-122 0,-50 155,-114 214,-115 -11,-47 -46,-64 -58,-107 -80,7 -280,91 -280,223z"/>
  </g>

  <g id="tel">
    <path fill="#51844a" d="M1710 1735c-46,-28 -227,-78 -292,-101 -77,-26 -77,-23 -117,37 -22,34 -62,102 -84,119 -56,-3 -188,-82 -230,-109 -137,-92 -250,-205 -342,-342 -27,-41 -106,-174 -109,-229 29,-38 130,-80 175,-127 -3,-45 -70,-228 -92,-292 -15,-45 -8,-74 -59,-80 -177,-19 -315,37 -340,194 -19,121 31,347 69,455 132,373 425,664 803,786 106,34 345,86 457,54 68,-20 116,-64 144,-120 27,-55 33,-177 16,-244z"/>
    <path fill="#51844a" d="M1479 779c9,-11 -4,-21 37,-19 22,1 49,28 52,51 4,43 -7,30 -21,37 40,38 98,136 122,202 55,150 25,177 74,247 101,8 92,-46 76,-133 -22,-117 -61,-215 -125,-311 -119,-179 -309,-303 -526,-345 -84,-16 -148,-31 -140,75 89,63 262,21 450,196z"/>
    <path fill="#51844a" d="M1029 814c58,43 102,31 174,61 105,44 200,138 245,242 30,69 23,125 64,181 125,10 89,-103 49,-207 -16,-40 -34,-74 -56,-107 -84,-126 -236,-232 -391,-251 -73,-9 -90,12 -85,82z"/>
    <path fill="#51844a" d="M1348 1290c73,-146 -207,-383 -300,-317 -41,30 -22,85 25,101 85,29 146,67 173,159 19,62 33,78 102,56z"/>
    <path fill="#1C1C1C" d="M1547 849c13,-7 25,7 21,-37 -2,-24 -29,-50 -52,-51 -41,-2 -28,8 -37,19 7,11 0,4 14,19 6,7 10,9 18,17 16,16 18,21 36,34z"/>
  </g>

  <g id="mail">
    <path fill="#51844a" d="M405 2023c0,0 396,-361 443,-384 51,40 114,135 205,135 93,0 152,-94 204,-135 47,23 384,327 443,386l-1295 -2zm1365 -823l2 767c-54,-24 -268,-233 -337,-287 -44,-34 -69,-57 -104,-98l439 -382zm-1434 -1l440 382 -441 385 1 -768zm235 -507l963 0 0 608 -353 302c-122,120 -135,118 -260,1l-351 -303 0 -538 1 -69zm1041 296c46,31 107,73 132,115l-131 113 0 -228zm-1250 115c13,-21 3,-9 19,-27l112 -88 0 227 -131 -113zm558 -493c131,-137 135,-135 265,1l-64 3 -96 1 -105 -5zm-424 6c-18,172 33,222 -52,304 -46,44 -165,122 -190,183 0,154 -20,800 7,899 35,132 211,104 353,104l903 0c148,0 308,25 330,-128 21,-149 12,-739 -1,-904 -53,-28 -45,-34 -88,-74 -33,-31 -65,-48 -98,-80 -85,-81 -35,-132 -52,-304 -270,-15 -240,54 -425,-122 -163,-155 -254,5 -355,85 -77,61 -210,30 -332,37z"/>
    <path fill="#282C33" d="M1352 1251c-40,114 -197,144 -311,134 -486,-41 -259,-750 167,-561 234,104 128,461 -84,426 -70,-11 -7,-24 -69,-10 -164,37 -216,-94 -143,-226 76,-138 185,-73 211,-73 32,0 36,-14 94,-6l-49 256c150,-47 158,-238 26,-310 -305,-166 -525,330 -227,432 221,76 271,-69 387,-63zm-781 -490l0 538 351 303c126,117 138,119 260,-1l353 -302 0 -608 -963 0 -1 69z"/>
    <path fill="#282C33" d="M405 2023l1295 2c-59,-58 -396,-363 -443,-386 -52,41 -111,135 -204,135 -91,0 -154,-95 -205,-135 -47,24 -443,384 -443,384z"/>
    <path fill="#282C33" d="M1331 1582c35,41 60,64 104,98 70,54 283,263 337,287l-2 -767 -439 382z"/>
    <polygon fill="#282C33" points="335,1967 776,1582 336,1199 "/>
    <path fill="#51844a" d="M991 1180c-31,-26 -31,-20 -27,-77 1,-17 13,-59 19,-71 24,-52 54,-57 115,-42 32,106 -32,262 -107,190zm362 71c-116,-7 -166,138 -387,63 -298,-102 -78,-598 227,-432 133,72 124,263 -26,310l49 -256c-58,-8 -62,7 -94,6 -25,0 -135,-65 -211,73 -72,132 -21,263 143,226 63,-14 -1,-2 69,10 212,34 318,-322 84,-426 -426,-190 -653,520 -167,561 114,10 272,-20 311,-134z"/>
    <path fill="#282C33" d="M991 1180c75,72 139,-85 107,-190 -61,-15 -90,-11 -115,42 -6,12 -18,54 -19,71 -4,57 -4,51 27,77z"/>
    <path fill="#282C33" d="M921 611l105 5 96 -1 64 -3c-130,-136 -134,-138 -265,-1z"/>
    <path fill="#282C33" d="M1613 1216l131 -113c-25,-42 -86,-84 -132,-115l0 228z"/>
    <path fill="#282C33" d="M362 1103l131 113 0 -227 -112 88c-16,18 -6,6 -19,27z"/>
  </g>

</svg>
