<!-- <?xml version="1.0" standalone="no"?>
<!DOCTYPE svg PUBLIC "-//W3C//DTD SVG 20010904//EN"
 "http://www.w3.org/TR/2001/REC-SVG-20010904/DTD/svg10.dtd"> -->
<svg version="1.0" xmlns="http://www.w3.org/2000/svg" width="1188.000000pt" height="1280.000000pt" viewBox="0 0 1188.000000 1280.000000" 
preserveAspectRatio="xMidYMid meet">
  <g id="iconSvg" transform="translate(0.000000,1280.000000) scale(0.100000,-0.100000)" fill="#6dfe76" stroke="none">
    <path d="M6569 12796 c-2 -2 -49 -9 -104 -16 -248 -29 -492 -99 -708 -203
    -217 -104 -410 -232 -564 -371 -33 -31 -66 -56 -72 -56 -17 0 -23 62 -19 214
    2 85 -1 146 -6 146 -15 0 -171 -87 -265 -147 -297 -192 -572 -466 -780 -777
    -211 -316 -396 -746 -466 -1086 -29 -138 19 -124 -399 -116 l-361 7 -340 -297
    c-621 -541 -561 -483 -585 -566 -12 -40 -25 -84 -31 -98 -8 -20 -56 -47 -252
    -139 -635 -299 -1377 -680 -1441 -740 -62 -58 -125 -203 -157 -361 -22 -112
    -23 -164 -4 -243 20 -86 522 -1046 550 -1052 11 -2 175 -18 365 -35 782 -71
    1063 -99 1070 -107 15 -15 68 -291 58 -301 -5 -5 -256 -7 -634 -4 -343 3 -624
    1 -624 -3 0 -5 45 -136 100 -292 55 -156 100 -290 100 -297 0 -7 -45 -139
    -100 -291 -55 -153 -99 -279 -97 -281 1 -1 88 -7 192 -14 105 -7 219 -15 255
    -19 l64 -6 86 -262 c47 -144 88 -265 92 -269 4 -3 55 37 114 90 59 53 112 95
    118 93 6 -2 79 -96 161 -210 83 -113 155 -205 160 -203 6 1 127 137 269 301
    l260 299 0 56 1 55 147 5 c141 5 149 6 171 30 20 21 837 868 1026 1062 l55 58
    -83 339 c-46 186 -82 344 -79 351 2 7 93 45 201 85 109 40 200 75 203 78 8 8
    214 708 214 728 0 9 -96 234 -214 500 -117 266 -212 488 -209 494 7 18 465
    277 474 268 4 -4 -16 -103 -46 -218 l-55 -210 205 -457 205 -458 -161 -442
    c-88 -244 -165 -448 -170 -454 -5 -7 -69 -33 -142 -59 -73 -26 -136 -51 -140
    -55 -5 -4 24 -138 63 -298 45 -182 69 -296 63 -305 -9 -17 -1331 -1463 -1359
    -1489 -17 -15 -27 -15 -114 -2 l-95 15 -34 -38 c-18 -21 -86 -103 -150 -183
    -640 -798 -1003 -1587 -1118 -2430 -26 -192 -26 -687 0 -880 36 -265 110 -559
    193 -772 47 -119 142 -319 182 -383 29 -46 31 -48 36 -25 117 555 360 1063
    731 1532 49 62 159 184 244 270 l154 158 -38 56 c-281 424 -388 1035 -285
    1626 18 105 31 141 43 121 3 -4 12 -48 22 -98 114 -616 412 -1271 799 -1757
    33 -42 66 -77 73 -78 11 0 650 759 658 783 3 7 -31 62 -74 124 -273 388 -439
    792 -501 1216 -23 154 -28 411 -8 405 7 -3 47 -85 90 -184 395 -912 881 -1582
    1404 -1935 83 -56 240 -137 282 -145 l28 -6 159 407 159 407 -50 47 c-325 301
    -462 442 -624 641 -294 363 -498 737 -581 1067 -30 117 -53 269 -43 284 12 21
    26 3 84 -115 425 -860 1140 -1533 2045 -1921 298 -128 905 -294 905 -247 0 15
    99 955 105 999 l6 42 -82 42 c-241 120 -574 315 -829 484 -649 430 -1146 927
    -1372 1373 -53 105 -69 152 -51 152 4 0 70 -62 147 -138 953 -934 2064 -1588
    3186 -1876 203 -52 534 -115 545 -104 3 2 -7 39 -21 82 -54 172 -91 523 -102
    990 l-7 271 -130 27 c-991 210 -1864 542 -2485 946 -385 250 -710 551 -882
    816 -68 106 -47 103 97 -12 371 -296 743 -532 1180 -747 723 -357 1448 -553
    2395 -649 179 -19 477 -41 805 -61 1010 -62 1353 -111 1741 -250 l96 -34 -5
    34 c-13 78 -115 248 -251 420 -108 135 -533 559 -735 732 l-165 140 -420 7
    c-680 11 -1184 41 -1726 101 -818 92 -1571 251 -2082 441 -154 57 -351 152
    -400 194 -66 55 -45 65 47 25 294 -130 749 -231 1285 -285 425 -42 680 -50
    1893 -60 1180 -10 1579 -21 1907 -55 186 -20 399 -55 534 -90 55 -13 102 -23
    104 -20 12 11 -178 337 -310 532 -336 495 -748 864 -1068 956 -222 64 -460 88
    -956 94 -764 10 -1692 -55 -2859 -202 -300 -37 -329 -33 -155 23 1127 365
    2539 516 3896 417 457 -33 1020 -108 1287 -170 34 -8 63 -13 64 -11 8 8 -86
    240 -152 374 -139 284 -287 494 -489 698 -143 143 -224 210 -366 303 -304 200
    -626 318 -1040 382 -125 19 -185 23 -430 23 -217 0 -311 -4 -394 -17 -143 -22
    -149 -22 -137 2 16 30 144 90 246 116 178 45 345 58 705 52 196 -3 392 -11
    493 -22 l168 -17 274 152 c151 84 275 155 275 159 0 12 -82 85 -170 153 -459
    353 -1064 581 -1760 663 -275 32 -615 43 -833 27 -102 -8 -124 -1 -87 28 75
    58 389 119 770 150 296 25 242 6 543 184 147 87 265 162 262 166 -7 11 -155
    64 -263 94 -127 36 -317 73 -482 93 -199 24 -707 24 -930 -1 -245 -27 -595
    -84 -683 -112 -26 -8 -33 23 -11 48 55 61 370 163 634 203 25 4 54 12 65 18
    34 18 255 190 255 198 0 5 -10 11 -22 14 -221 51 -358 65 -629 65 -221 0 -424
    -15 -634 -46 -108 -15 -429 -78 -482 -93 -104 -30 -40 122 143 340 108 127
    105 119 41 119 -29 0 -56 -2 -58 -4z m-1160 -1556 c25 -13 37 -47 60 -165 42
    -212 46 -258 46 -520 0 -264 -5 -315 -46 -498 -45 -200 -158 -467 -246 -582
    l-39 -50 -159 -3 c-88 -1 -165 0 -173 3 -11 4 -8 16 14 53 110 184 181 448
    223 828 30 273 35 378 19 368 -7 -4 -178 -119 -380 -256 -212 -143 -376 -248
    -389 -248 -32 0 -59 28 -59 61 0 147 480 673 826 907 55 37 155 91 194 105 25
    9 90 8 109 -3z m-2659 -1959 c0 -10 -564 -660 -584 -673 -15 -10 -23 -1 -180
    206 -76 98 -136 185 -134 193 2 11 128 54 433 148 237 73 438 133 448 134 9 1
    17 -3 17 -8z m-1974 -1158 c-4 -10 -57 -151 -120 -313 -72 -187 -119 -295
    -127 -295 -13 0 -49 66 -189 352 -45 92 -61 136 -54 143 13 13 429 128 467
    129 23 1 27 -3 23 -16z"/>
  </g>

  <g id="cssSvg" fill="#6dfe76" viewBox="-0.1 0 1199.3 1692.8">
    <path d="M282 114v114h182v-76H358V76h106V0H282zM500.2 74.2l.3 74.3 52.8.3 52.7.2v13H500v69h182V79H576V66h106V0H500zM719 74.5V149h105v13H719v69h181V79H795V66h105V0H719zM.4 336.2C.7 338 25.3 613.3 55.1 948s54.2 608.6 54.3 608.7 110.2 30.8 244.8 68.1l244.7 68 245.3-68c134.9-37.4 245.4-68.1 245.4-68.2.1 0 24.5-273.7 54.3-608.1s54.4-609.7 54.7-611.8l.6-3.7H-.1zm974.6 249c0 2.2-7.1 82.1-48.9 550.2-10.4 116.5-19.3 212.2-19.8 212.6-1.1 1-304.7 85-307.1 85-1.9 0-307-84.4-307.7-85.2-.2-.2-4.9-51.4-10.4-113.8-5.6-62.4-10.3-115.4-10.7-117.8l-.5-4.2h75.5c41.6 0 75.6.1 75.7.2 0 .2 2.4 27 5.4 59.6 2.9 32.7 5.5 59.5 5.7 59.7s37.7 10.5 83.5 22.8l83.1 22.5 83.3-22.5c45.9-12.4 83.6-22.7 83.8-22.8.4-.5 17-185.7 17.1-190.8v-3.7H263v-2.5c0-1.4-2.9-35.1-6.5-74.8s-6.5-72.3-6.5-72.5c0-.1 123.1-.2 273.5-.2H797v-2.5c0-1.3 2.9-35.3 6.5-75.3 3.6-40.1 6.5-73.7 6.5-74.6 0-1.5-22.1-1.6-286.7-1.8l-286.8-.3-6.1-68c-3.4-37.4-6.5-71-6.9-74.8l-.6-6.7H975z"/>
  </g>

  <g id="htmlSvg" fill="#6dfe76" viewBox="74.634 0 362.733 512">
    <path d="M107.644 470.877L74.634 100.62h362.733l-33.046 370.199L255.778 512z"/>
    <path d="M256 480.522l120.03-33.276 28.24-316.352H256z"/>
    <g fill="#282C33">
      <path d="M256 268.217h-60.09l-4.15-46.501H256v-45.411H142.132l1.087 12.183 11.161 125.139H256zM256 386.153l-.198.053-50.575-13.656-3.233-36.217h-45.585l6.362 71.301 93.02 25.823.209-.058z"/>
    </g>
    <path d="M108.382 0h23.077v22.8h21.11V0h23.078v69.044H152.57v-23.12h-21.11v23.12h-23.076V0h-.002zM205.994 22.896h-20.315V0h63.72v22.896h-20.325v46.148h-23.078l-.002-46.148zM259.511 0h24.062l14.802 24.26L313.163 0h24.072v69.044h-22.982V34.822l-15.877 24.549h-.396l-15.889-24.549v34.222h-22.579V0zM348.72 0h23.084v46.222h32.453v22.822H348.72V0z"/>
    <g fill="#282C33">
      <path d="M255.844 268.217v45.41h55.917l-5.271 58.894-50.646 13.67v47.244l93.093-25.801.683-7.672 10.671-119.551 1.108-12.194h-12.237zM255.844 176.305V221.716h109.687l.911-10.207 2.069-23.021 1.086-12.183z"/>
    </g>
  </g>

  <!-- <g id="JSSvg" xmlns:dc="http://purl.org/dc/elements/1.1/"
    xmlns:cc="http://creativecommons.org/ns#"
    xmlns:rdf="http://www.w3.org/1999/02/22-rdf-syntax-ns#"
    xmlns:svg="http://www.w3.org/2000/svg"
    xmlns="http://www.w3.org/2000/svg"
    xmlns:sodipodi="http://sodipodi.sourceforge.net/DTD/sodipodi-0.dtd"
    xmlns:inkscape="http://www.inkscape.org/namespaces/inkscape"
    width="145.75"
    height="157.82767"
    id="svg2"
    version="1.1"
    inkscape:version="0.48.4 r9939"
    sodipodi:docname="javascript.svg"> -->
    <!-- <defs
      id="defs4" />
    <sodipodi:namedview id="base"
      pagecolor="#ffffff"
      bordercolor="#666666"
      borderopacity="1.0"
      inkscape:pageopacity="0.0"
      inkscape:pageshadow="2"
      inkscape:zoom="0.77995601"
      inkscape:cx="50.16802"
      inkscape:cy="19.624571"
      inkscape:document-units="px"
      inkscape:current-layer="layer1"
      showgrid="false"
      inkscape:window-width="1026"
      inkscape:window-height="764"
      inkscape:window-x="220"
      inkscape:window-y="220"
      inkscape:window-maximized="0"
      fit-margin-top="0"
      fit-margin-left="0"
      fit-margin-right="0"
      fit-margin-bottom="0" />
    <metadata id="metadata7">
      <rdf:RDF>
        <cc:Work
          rdf:about="">
          <dc:format>image/svg+xml</dc:format>
          <dc:type
            rdf:resource="http://purl.org/dc/dcmitype/StillImage" />
          <dc:title />
        </cc:Work>
      </rdf:RDF>
    </metadata> -->
    <!-- <g inkscape:label="Layer 1"
      inkscape:groupmode="layer"
      id="layer1"
      transform="translate(-326.59295,-168.33349)">
      <g id="g8487" transform="translate(-202.57553,-38.463711)">
        <g transform="matrix(1.25,0,0,1.25,-2.5065195,174.1722)" id="g3652">
          <path style="opacity:0.85;fill:#101010" inkscape:connector-curvature="0"
            d="m 512.87,26.15 c 1.4,-0.02 2.81,-0.04 4.22,-0.05 0.02,0.78 0.05,2.33 0.07,3.11 -1.44,0 -2.88,-0.01 -4.31,-0.01 0,-0.76 0.02,-2.28 0.02,-3.05 z"
            id="path3654" 
          />
        </g>
        <path id="path3664"
          d="m 531.79348,207.6597 c 3.2125,0.025 6.4375,0.0375 9.675,0.05 -0.275,5.75 0.85,11.725 -0.775,17.325 -2.1,4.025 -7.325,3.2375 -11.0875,3.3125 -0.15,-1.275 -0.3,-2.55 -0.4375,-3.825 2.1625,-0.175 4.5125,0.25 6.5,-0.8625 1.2875,-3.9875 0.7125,-8.25 0.3875,-12.35 -1.1,0.025 -3.2875,0.05 -4.3875,0.0625 0.0375,-0.925 0.0875,-2.7875 0.125,-3.7125 z"
          inkscape:connector-curvature="0"
          style="fill:#131313" 
        />
        <path id="path3666"
          d="m 596.15598,209.2347 c 3.7875,-2.925 8.7625,-1.725 12.975,-0.5875 -0.0125,1.1125 -0.025,3.3375 -0.025,4.45 -3.2625,-1.3125 -9.4625,-4.175 -10.2875,1.225 3.0875,0.9375 6.35,1.4875 9.15,3.1625 2.975,2.425 2.1375,7.9375 -1.2875,9.6 -3.9,2.3125 -8.525,1.05 -12.6375,0.2125 -0.2375,-1.7125 -0.475,-3.4125 -0.6875,-5.125 3.4625,1.525 10.475,5.1375 11.5125,-0.7 -3.475,-1.3125 -7.8,-1.5 -10.325,-4.5 -1.1125,-2.55 -0.925,-6.1 1.6125,-7.7375 z"
          inkscape:connector-curvature="0"
          style="fill:#131313" 
        />
        <path id="path3668"
          d="m 665.26848,208.3722 c 1.4625,0 2.9375,0 4.425,0 0.0375,1.4125 0.0875,2.825 0.15,4.2375 1.125,0.0125 3.3875,0.0375 4.525,0.05 0.025,0.8625 0.0625,2.575 0.0875,3.425 -1.15,-0.0125 -3.45,-0.0375 -4.6,-0.0625 0.0625,2.8625 -0.675,5.9875 0.7625,8.625 1.075,0.1125 3.225,0.325 4.3,0.4375 -0.1125,5.2625 -6.1125,2.875 -9.2875,2.05 -0.2875,-3.2125 -0.425,-6.425 -0.425,-9.65 -0.8125,-1.1375 -1.625,-2.2875 -2.425,-3.425 0.6125,-0.5625 1.8375,-1.6875 2.45,-2.25 0.0125,-0.8625 0.025,-2.5875 0.0375,-3.4375 z"
          inkscape:connector-curvature="0"
          style="fill:#131313" 
        />
        <path id="path3670"
          d="m 545.36848,212.7722 c 4.075,-0.2125 9.775,-1.725 12.3375,2.4875 0.9125,4.175 0.3375,8.5125 0.475,12.7625 -1.825,-0.1625 -3.65,-0.3375 -5.4625,-0.5 -2.075,0.175 -4.5125,1.7125 -6.425,0.3375 -3.175,-1.525 -3.225,-7.15 0.1125,-8.5125 2.425,-1 5.075,-1.175 7.6125,-1.775 -2.4125,-2.5 -5.8375,-1.55 -8.875,-1.225 0.0625,-0.9 0.175,-2.6875 0.225,-3.575 m 3.975,8.5875 c -0.1375,1.2125 -0.2625,2.425 -0.375,3.65 1.3875,-0.075 2.775,-0.1375 4.175,-0.2125 0.1,-1.3125 0.2125,-2.625 0.325,-3.9375 -1.3875,0.1625 -2.7625,0.3375 -4.125,0.5 z"
          inkscape:connector-curvature="0"
          style="fill:#131313" 
        />
        <path id="path3672"
          d="m 560.04348,212.3347 c 1.2,0.2375 3.6125,0.7125 4.8125,0.95 1.2625,2.9 2.125,5.95 3.35,8.875 1.025,-3.125 1.975,-6.2875 2.9,-9.45 1.2,-0.025 3.6125,-0.0625 4.8125,-0.0875 -1.7,5.3625 -3.6,10.6625 -5.725,15.8875 -1.65,-0.2125 -3.275,-0.5625 -4.85,-1.025 -2.275,-4.85 -3.775,-10.025 -5.3,-15.15 z"
          inkscape:connector-curvature="0"
          style="fill:#131313" 
        />
        <path id="path3674"
          d="m 577.46848,216.3222 c 0.35,-1.1875 0.75,-2.375 1.1875,-3.5375 3.875,-0.5625 9.125,-1.3875 11.7875,2.2375 0.9125,4.325 0.35,8.8 0.4375,13.1875 -1.8375,-0.25 -3.6625,-0.5 -5.4875,-0.75 -3.275,1.7375 -8.7375,1.1125 -8.6625,-3.5 -0.625,-5.475 6.2125,-5.55 9.925,-6.275 -2.2375,-3 -6.1125,-1.4125 -9.1875,-1.3625 m 4.525,5.15 c -0.1375,1.125 -0.2625,2.2625 -0.3875,3.3875 1.375,0.0375 2.75,0.075 4.1375,0.1 0.125,-1.3875 0.25,-2.7625 0.375,-4.15 -1.375,0.2125 -2.75,0.4375 -4.125,0.6625 z"
          inkscape:connector-curvature="0"
          style="fill:#131313" 
        />
        <path id="path3676"
          d="m 610.90598,220.4097 c -0.3875,-6.8 8.2625,-10.3625 13.4375,-6.7375 0.125,0.9625 0.3625,2.9 0.475,3.8625 -2.375,-0.75 -4.8125,-2.45 -7.3625,-1.3 -2.7,2.575 -2.1375,9.1125 2.4375,8.725 1.2625,-0.4 3.775,-1.2 5.0375,-1.6 -0.225,1.075 -0.6625,3.225 -0.875,4.2875 -5.4125,2.55 -13.575,-0.4625 -13.15,-7.2375 z"
          inkscape:connector-curvature="0"
          style="fill:#131313" 
        />
        <path id="path3678"
          d="m 626.89348,212.2847 c 1.875,0.5 3.7875,1 5.675,1.5375 1.4125,-0.5125 2.8375,-1.0125 4.275,-1.525 0.0625,1.2 0.2125,3.6 0.2875,4.8 -1.8,0.0875 -3.6,0.175 -5.375,0.2625 -0.125,3.5875 -0.1625,7.1625 -0.1875,10.75 -1.175,0.0125 -3.5375,0.025 -4.7125,0.0375 -0.0625,-5.2875 -0.075,-10.575 0.0375,-15.8625 z"
          inkscape:connector-curvature="0"
          style="fill:#131313" 
        />
        <path id="path3680"
          d="m 647.21848,212.6222 c 3.45,0.775 6.925,0.5375 10.3625,-0.15 5.3875,1.1125 5.5125,8.75 3.4625,12.75 -1.7,3.45 -5.8625,3.125 -9.075,2.95 0.025,1.825 0.05,3.6375 0.075,5.4625 -1.2,-0.0125 -3.625,-0.0375 -4.8375,-0.0625 0,-6.975 -0.0125,-13.9625 0.0125,-20.95 m 4.875,3.675 c -0.05,2.9125 -0.075,5.8375 -0.05,8.75 1.55,-0.425 3.55,-0.125 4.725,-1.4625 0.875,-2.375 0.1875,-4.9375 0.0125,-7.3875 -1.5625,0.025 -3.125,0.0625 -4.6875,0.1 z"
          inkscape:connector-curvature="0"
          style="fill:#131313" 
        />
        <g transform="matrix(1.25,0,0,1.25,-2.5065195,174.1722)"
          id="g3688">
          <path style="fill:#131313"
            inkscape:connector-curvature="0"
            d="m 513.23,30.79 c 0.89,0 2.67,0 3.55,0 0.06,4.13 0.06,8.25 0,12.38 -0.89,0 -2.66,0 -3.55,0 -0.07,-4.12 -0.07,-8.25 0,-12.38 z"
            id="path3690" 
          />
        </g>
        <g transform="matrix(1.25,0,0,1.25,-2.5065195,174.1722)" id="g3768">
          <path style="fill:#d6ba32" inkscape:connector-curvature="0"
            d="m 439.03,51.2 c 9.97,-0.42 19.96,0.12 29.94,-0.05 11.01,-0.35 22.01,-0.06 33.03,-0.02 8.74,0.02 17.48,-0.04 26.22,0.03 -2.75,30.33 -5.52,60.66 -8.07,91.01 -11.71,3.33 -23.43,6.61 -35.14,9.92 -1.5,0.62 -3.04,0.04 -4.48,-0.35 -11.13,-3.2 -22.26,-6.37 -33.41,-9.45 -2.9,-30.34 -5.63,-60.71 -8.09,-91.09 m 44.78,7.91 c -0.41,14.96 -0.06,29.92 -0.18,44.88 0.11,13.68 -0.2,27.37 0.16,41.05 9.84,-2.32 19.55,-5.17 29.26,-7.98 2.44,-25.97 4.82,-51.94 6.86,-77.94 -12.03,-0.12 -24.07,0.02 -36.1,-0.01 m -12.52,58.42 c -5.78,-1.58 -11.49,-3.4 -17.35,-4.65 -0.17,3.48 -0.11,6.96 0.29,10.42 8.58,2.09 16.98,4.84 25.57,6.89 0.06,-19.81 -0.03,-39.63 0.04,-59.44 -2.8,-0.07 -5.6,-0.11 -8.4,-0.17 -0.32,15.64 -0.02,31.3 -0.15,46.95 z"
            id="path3770" 
          />
        </g>
        <g transform="matrix(1.25,0,0,1.25,-2.5065195,174.1722)" id="g3796">
          <path style="fill:#ffda3e" inkscape:connector-curvature="0"
            d="m 483.81,59.11 c 12.03,0.03 24.07,-0.11 36.1,0.01 -2.04,26 -4.42,51.97 -6.86,77.94 -9.71,2.81 -19.42,5.66 -29.26,7.98 -0.36,-13.68 -0.05,-27.37 -0.16,-41.05 0.12,-14.96 -0.23,-29.92 0.18,-44.88 m 3.37,11.63 c 0.04,12.88 0.05,25.77 0,38.65 5.88,-0.95 11.74,-2.04 17.6,-3.11 -0.09,3 -0.21,6 -0.34,9 -5.71,1.52 -11.41,3.09 -17.15,4.5 -0.09,3.46 -0.1,6.92 -0.07,10.39 7.23,-1.62 14.35,-3.66 21.53,-5.47 0.9,-0.42 2.63,-0.37 2.55,-1.78 0.87,-9.26 1.41,-18.56 2.25,-27.84 -5.95,0.49 -11.84,1.49 -17.79,1.9 -0.05,-5.26 -0.06,-10.52 0.02,-15.78 6.26,0 12.51,0 18.77,0.01 0.4,-3.51 0.75,-7.03 1.02,-10.55 -9.46,0.04 -18.93,-0.09 -28.39,0.08 z"
            id="path3798" 
          />
        </g>
        <path id="path3806"
          d="m 586.60598,321.0847 c 0.1625,-19.5625 -0.2125,-39.1375 0.1875,-58.6875 3.5,0.075 7,0.125 10.5,0.2125 -0.0875,24.7625 0.025,49.5375 -0.05,74.3 -10.7375,-2.5625 -21.2375,-6 -31.9625,-8.6125 -0.5,-4.325 -0.575,-8.675 -0.3625,-13.025 7.325,1.5625 14.4625,3.8375 21.6875,5.8125 z"
          inkscape:connector-curvature="0"
          style="fill:#ebebeb" 
        />
      </g>
    </g>
  </g> -->


</svg>
