<svg version="1.0" xmlns="http://www.w3.org/2000/svg" width="140px" height="100px" viewBox="0 0 140px 100px"  preserveAspectRatio="none">
  <g id="html">
    <polygon fill="#282C33" fill-rule="nonzero" points="345,2315 198,668 1811,668 1664,2314 1004,2497 "/>
    <polygon fill="#45474b" fill-rule="nonzero" points="1005,2357 1538,2209 1664,803 1005,803 "/>
    <path fill="#747475" fill-rule="nonzero" d="M1005 1414l-267 0 -18 -207 286 0 0 -202 -506 0 5 54 50 556 452 0 0 -202zm0 524l-1 0 -225 -61 -14 -161 -203 0 28 317 414 115 1 0 0 -210z"/>
    <path fill="#a8a8a9" fill-rule="nonzero" d="M348 221l103 0 0 101 94 0 0 -101 103 0 0 307 -103 0 0 -103 -94 0 0 103 -103 0 0 -307 0 0zm434 102l-90 0 0 -102 283 0 0 102 -90 0 0 205 -103 0 0 -205zm238 -102l107 0 66 108 66 -108 107 0 0 307 -102 0 0 -152 -71 109 -2 0 -71 -109 0 152 -100 0 0 -307 0 0zm397 0l103 0 0 206 144 0 0 101 -247 0 0 -307z"/>
    <path fill="#a8a8a9" fill-rule="nonzero" d="M1004 1414l0 202 249 0 -23 262 -225 61 0 210 414 -115 3 -34 47 -532 5 -54 -54 0 -415 0zm0 -409l0 202 488 0 4 -45 9 -102 5 -54 -506 0z"/>
  </g>

  <g id="css">
    <polygon fill="#282C33" fill-rule="nonzero" points="345,2315 198,668 1811,668 1664,2314 1004,2497 "/>
    <polygon fill="#45474b" fill-rule="nonzero" points="1005,2357 1538,2209 1664,803 1005,803 "/>
    <path fill="#747475" fill-rule="nonzero" d="M1005 1938l-1 0 -225 -61 -14 -161 -203 0 28 317 414 115 1 0 0 -210zm0 -524l0 -173 0 0 -193 69 -277 104 18 202 452 0 0 -202zm0 -207l-1 -202 -539 -2 31 211 509 -7 0 0z"/>
    <path fill="#a8a8a9" fill-rule="nonzero" d="M1004 1005l1 409 487 -207 4 -45 9 -102 5 -54 -506 0zm0 409l0 202 249 0 -23 262 -225 61 0 210 414 -115 3 -34 47 -532 5 -54 -54 0 -415 0z"/>
    <path fill="#a8a8a9" d="M1198 405l195 1c1,15 3,33 -1,47l-196 1 1 75 10 -2 29 0 29 0 29 0 29 0 159 -1 -1 -180 -206 -2 -1 -35 48 0 29 0 114 0 16 0 0 -29 0 -59 -283 -1c-4,18 -4,171 0,186zm-571 123l30 0 30 0 30 0 30 0 72 0 1 -66 -1 -11 -205 -1 0 -135 206 -1 1 -92 -297 -1c-3,12 -3,291 0,307l102 0zm242 -120l195 1c1,15 3,33 -1,47l-196 1 1 75 10 -2 29 0 29 0 29 0 29 0 159 -1 -1 -180 -206 -2 -1 -35 48 0 29 0 114 0 16 0 0 -29 0 -59 -283 -1c-4,18 -4,171 0,186z"/>
  </g>

  <g id="js">
    <polygon fill="#282C33" fill-rule="nonzero" points="345,2315 198,668 1811,668 1664,2314 1004,2497 "/>
    <polygon fill="#45474b" fill-rule="nonzero" points="1005,2357 1538,2209 1664,803 1005,803 "/>
    <path fill="#747475" fill-rule="nonzero" d="M865 1946l-1 0 -225 -61 -14 -161 -203 0 28 317 414 115 1 0 0 -210zm61 -959l-164 -12 -14 1149 158 48 21 -1185z"/>
    <path fill="#a8a8a9" fill-rule="nonzero" d="M1065 1449l-9 209 277 -49 -23 262 -225 61 0 210 414 -115 3 -34 47 -532 5 -54 -54 0 -434 42zm13 -249l-13 249 207 -19 15 -243 -209 13zm10 -201l-10 201 497 -31 18 -207 -505 38z"/>
    <path fill="#a8a8a9" d="M1023 407l195 1c1,15 3,33 -1,47l-196 1 1 75 10 -2 29 0 29 0 29 0 29 0 159 -1 -1 -180 -206 -2 -1 -35 48 0 29 0 114 0 16 0 0 -29 0 -59 -283 -1c-4,18 -4,171 0,186zm-151 120l-30 0 -30 0 -30 0 -30 0 -3 -77 136 -1 0 -135 0 -94 89 0c3,12 3,291 0,307l-102 0z"/>
  </g>

  <g id="git" fill="#282C33">
    <path d="M251.172 116.594L139.4 4.828c-6.433-6.437-16.873-6.437-23.314 0l-23.21 23.21 29.443 29.443c6.842-2.312 14.688-.761 20.142 4.693 5.48 5.489 7.02 13.402 4.652 20.266l28.375 28.376c6.865-2.365 14.786-.835 20.269 4.657 7.663 7.66 7.663 20.075 0 27.74-7.665 7.666-20.08 7.666-27.749 0-5.764-5.77-7.188-14.235-4.27-21.336l-26.462-26.462-.003 69.637a19.82 19.82 0 0 1 5.188 3.71c7.663 7.66 7.663 20.076 0 27.747-7.665 7.662-20.086 7.662-27.74 0-7.663-7.671-7.663-20.086 0-27.746a19.654 19.654 0 0 1 6.421-4.281V94.196a19.378 19.378 0 0 1-6.421-4.281c-5.806-5.798-7.202-14.317-4.227-21.446L81.47 39.442l-76.64 76.635c-6.44 6.443-6.44 16.884 0 23.322l111.774 111.768c6.435 6.438 16.873 6.438 23.316 0l111.251-111.249c6.438-6.44 6.438-16.887 0-23.324"/>
  </g>

  <g id="ts">
    <polygon fill="#282C33" fill-rule="nonzero" points="345,2315 198,668 1811,668 1664,2314 1004,2497 "/>
    <polygon fill="#45474b" fill-rule="nonzero" points="1005,2357 1538,2209 1664,803 1005,803 "/>
    <polygon fill="#747475" fill-rule="nonzero" points="740,986 576,975 561,2124 720,2171 "/>
    <polygon fill="#747475" fill-rule="nonzero" points="342,936 350,1104 951,1158 948,983 "/>
    <path fill="#a8a8a9" fill-rule="nonzero" d="M1065 1449l-9 209 277 -49 -23 262 -225 61 0 210 414 -115 3 -34 47 -532 5 -54 -54 0 -434 42zm13 -249l-13 249 207 -19 15 -243 -209 13zm10 -201l-10 201 497 -31 18 -207 -505 38z"/>
    <polygon fill="#a8a8a9" points="743,221 712,221 682,221 652,221 622,221 619,298 755,299 755,434 755,528 844,528 845,297 970,296 970,221 "/>
    <path fill="#a8a8a9" d="M1023 407l195 1c1,15 3,33 -1,47l-196 1 1 75 10 -2 29 0 29 0 29 0 29 0 159 -1 -1 -180 -206 -2 -1 -35 48 0 29 0 114 0 16 0 0 -29 0 -59 -283 -1c-4,18 -4,171 0,186z"/>
  </g>

  <g id="styled">
    <path fill="#282C33" d="M16.214 6.762l-.075.391c-.116.741-.074.953.244 1.228l.307.254-.318 1.418c-.19.846-.423 1.555-.571 1.788-.127.201-.275.497-.307.656-.053.19-.233.381-.508.55-.243.138-.72.508-1.058.805-.27.243-.456.392-.557.456l-.33.261c-.106.17-.166.307-.189.411-.023.107-.01.178.024.23.033.05.09.085.168.107a.954.954 0 00.282.023 3 3 0 00.632-.112c.07-.019.125-.037.173-.053.074-.091.245-.263.548-.562.804-.793 1.111-1.227.794-1.11-.117.042-.064-.064.137-.276.424-.413.667-1.037 1.175-2.994.402-1.545.402-1.567.698-1.567.139 0 .532.024.532.024V6.762h-.902zm3.839 3.165c-.064 0-.17.096-.233.202-.116.19.021.306 1.767 1.396 1.037.657 1.873 1.217 1.852 1.26-.021.031-.868.582-1.883 1.217-1.842 1.142-1.852 1.153-1.683 1.386.212.275 0 .37 2.391-1.122L24 13.155v-.836l-1.937-1.196c-1.047-.656-1.957-1.185-2.01-1.196zm-16.085.117c-.053 0-.963.54-2.01 1.185L0 12.425v.836l1.947 1.217c1.08.666 1.99 1.217 2.032 1.217.042 0 .127-.096.212-.212.127-.201.02-.286-1.768-1.418C.72 12.996.54 12.848.71 12.732c.106-.074.91-.572 1.778-1.111 1.979-1.217 1.873-1.133 1.714-1.387-.063-.105-.17-.2-.233-.19zm8.684.023c-.292-.002-.92.443-2.8 1.978-.081.193-.088.326-.051.412.024.059.068.1.129.13.06.03.138.048.224.055.171.015.373-.012.536-.044l.11-.025a.386.386 0 01.144-.118c.116-.064.603-.508 1.09-.984.857-.868 1.058-1.26.709-1.387a.24.24 0 00-.09-.017zm2.196.603c-.257.007-.72.305-1.513.938-.398.323-.65.497-.785.533l-.524.414c-.197.36-.226.583-.174.706a.25.25 0 00.138.134.644.644 0 00.24.045 2.18 2.18 0 00.58-.085 3.466 3.466 0 00.291-.092l.029-.012.053-.028c.1-.129.33-.372.618-.652.91-.878 1.375-1.502 1.28-1.735-.043-.113-.117-.17-.233-.166zm-2.424 1.08c-.074.008-.24.136-.539.398-.432.382-.903.602-1.066.504a3.97 3.97 0 01-.114.024c-.166.033-.373.06-.558.045a.708.708 0 01-.252-.063.337.337 0 01-.168-.17c-.037-.09-.037-.202.005-.345l-.65.534-1.471 1.217V15.867l4.82-3.797a.41.41 0 01.016-.123c.037-.134.035-.202-.023-.196zm2.074.639c-.073 0-.195.103-.39.31-.265.283-.682.557-.903.613l-.034.018a2.191 2.191 0 01-.11.042c-.06.02-.138.044-.228.068-.18.049-.404.094-.604.089a.732.732 0 01-.275-.054.344.344 0 01-.184-.18c-.058-.139-.035-.334.092-.611L7.61 16.033v1.205h1.868l3.962-3.112c.103-.114.258-.27.467-.465.56-.519.687-.698.687-.963 0-.206-.023-.31-.096-.31zm.943 1.95l-.339.338c-.19.18-.529.402-.761.497l-.046.02-.003.005-.01.01c-.009.007-.013.008-.02.011a3.432 3.432 0 01-.282.093 3.058 3.058 0 01-.65.115 1.035 1.035 0 01-.31-.027.364.364 0 01-.218-.144c-.048-.074-.062-.173-.035-.295a1.11 1.11 0 01.095-.25l-3.197 2.526h4.252l.508-.582c.698-.814 1.016-1.396 1.016-1.894z"/>
  </g>

  <g id="react">
    <path fill="#282C33" d="M12 9.861A2.139 2.139 0 1 0 12 14.139 2.139 2.139 0 1 0 12 9.861zM6.008 16.255l-.472-.12C2.018 15.246 0 13.737 0 11.996s2.018-3.25 5.536-4.139l.472-.119.133.468a23.53 23.53 0 0 0 1.363 3.578l.101.213-.101.213a23.307 23.307 0 0 0-1.363 3.578l-.133.467zM5.317 8.95c-2.674.751-4.315 1.9-4.315 3.046 0 1.145 1.641 2.294 4.315 3.046a24.95 24.95 0 0 1 1.182-3.046A24.752 24.752 0 0 1 5.317 8.95zM17.992 16.255l-.133-.469a23.357 23.357 0 0 0-1.364-3.577l-.101-.213.101-.213a23.42 23.42 0 0 0 1.364-3.578l.133-.468.473.119c3.517.889 5.535 2.398 5.535 4.14s-2.018 3.25-5.535 4.139l-.473.12zm-.491-4.259c.48 1.039.877 2.06 1.182 3.046 2.675-.752 4.315-1.901 4.315-3.046 0-1.146-1.641-2.294-4.315-3.046a24.788 24.788 0 0 1-1.182 3.046zM5.31 8.945l-.133-.467C4.188 4.992 4.488 2.494 6 1.622c1.483-.856 3.864.155 6.359 2.716l.34.349-.34.349a23.552 23.552 0 0 0-2.422 2.967l-.135.193-.235.02a23.657 23.657 0 0 0-3.785.61l-.472.119zm1.896-6.63c-.268 0-.505.058-.705.173-.994.573-1.17 2.565-.485 5.253a25.122 25.122 0 0 1 3.233-.501 24.847 24.847 0 0 1 2.052-2.544c-1.56-1.519-3.037-2.381-4.095-2.381zM16.795 22.677c-.001 0-.001 0 0 0-1.425 0-3.255-1.073-5.154-3.023l-.34-.349.34-.349a23.53 23.53 0 0 0 2.421-2.968l.135-.193.234-.02a23.63 23.63 0 0 0 3.787-.609l.472-.119.134.468c.987 3.484.688 5.983-.824 6.854a2.38 2.38 0 0 1-1.205.308zm-4.096-3.381c1.56 1.519 3.037 2.381 4.095 2.381h.001c.267 0 .505-.058.704-.173.994-.573 1.171-2.566.485-5.254a25.02 25.02 0 0 1-3.234.501 24.674 24.674 0 0 1-2.051 2.545zM18.69 8.945l-.472-.119a23.479 23.479 0 0 0-3.787-.61l-.234-.02-.135-.193a23.414 23.414 0 0 0-2.421-2.967l-.34-.349.34-.349C14.135 1.778 16.515.767 18 1.622c1.512.872 1.812 3.37.824 6.855l-.134.468zM14.75 7.24c1.142.104 2.227.273 3.234.501.686-2.688.509-4.68-.485-5.253-.988-.571-2.845.304-4.8 2.208A24.849 24.849 0 0 1 14.75 7.24zM7.206 22.677A2.38 2.38 0 0 1 6 22.369c-1.512-.871-1.812-3.369-.823-6.854l.132-.468.472.119c1.155.291 2.429.496 3.785.609l.235.02.134.193a23.596 23.596 0 0 0 2.422 2.968l.34.349-.34.349c-1.898 1.95-3.728 3.023-5.151 3.023zm-1.19-6.427c-.686 2.688-.509 4.681.485 5.254.987.563 2.843-.305 4.8-2.208a24.998 24.998 0 0 1-2.052-2.545 24.976 24.976 0 0 1-3.233-.501zM12 16.878c-.823 0-1.669-.036-2.516-.106l-.235-.02-.135-.193a30.388 30.388 0 0 1-1.35-2.122 30.354 30.354 0 0 1-1.166-2.228l-.1-.213.1-.213a30.3 30.3 0 0 1 1.166-2.228c.414-.716.869-1.43 1.35-2.122l.135-.193.235-.02a29.785 29.785 0 0 1 5.033 0l.234.02.134.193a30.006 30.006 0 0 1 2.517 4.35l.101.213-.101.213a29.6 29.6 0 0 1-2.517 4.35l-.134.193-.234.02c-.847.07-1.694.106-2.517.106zm-2.197-1.084c1.48.111 2.914.111 4.395 0a29.006 29.006 0 0 0 2.196-3.798 28.585 28.585 0 0 0-2.197-3.798 29.031 29.031 0 0 0-4.394 0 28.477 28.477 0 0 0-2.197 3.798 29.114 29.114 0 0 0 2.197 3.798z"/>
  </g>

  <g id="figma">
    <path fill="#282C33" d="M1075 1615l-448 0c-1,0 -2,0 -2,1 0,1 -1,1 -2,1 0,0 -1,0 -2,1 -1,0 -1,0 -2,0 -73,13 -79,12 -153,49 -20,10 -58,39 -74,55 -103,104 -146,228 -113,379 11,53 49,130 88,169 15,15 22,25 43,42 70,56 154,88 240,93l48 0c38,-2 76,-10 112,-22 135,-47 231,-161 258,-299 5,-25 8,-11 8,-36l0 -432z"/>
    <path fill="#282C33" d="M627 1615l448 0 0 -264 0 -111c0,-44 0,-88 0,-132 0,-30 4,-109 -2,-133l-542 1c-68,0 -150,43 -196,89 -45,45 -82,113 -91,193l0 71c1,5 1,9 2,14 9,61 32,125 75,168 10,10 9,12 20,21 24,18 31,31 71,51 40,20 84,34 132,34 28,0 55,0 83,0z"/>
    <path fill="#282C33" d="M531 976l542 -1 0 -641 -7 0c-178,0 -356,0 -534,0 -29,2 -58,8 -95,23 -105,42 -175,134 -191,249 -1,6 -2,12 -2,18l0 63c14,151 128,273 275,287l13 3z"/>
    <path fill="#45474b" d="M1073 975l268 1 109 0c89,0 140,4 207,-21 55,-20 99,-55 133,-98 34,-43 58,-95 66,-162 0,-2 0,-4 1,-6l0 -68c-5,-48 -19,-92 -35,-121 -39,-72 -107,-132 -188,-154 -35,-10 -58,-12 -104,-12 -152,0 -305,0 -457,0l0 641z"/>
    <path fill="#45474b" d="M1075 1240l0 111 11 43c4,15 9,28 16,41 13,28 26,47 44,70 15,19 40,40 60,54 22,16 47,28 75,39 51,19 143,25 203,8 62,-17 105,-43 145,-83 38,-38 66,-83 81,-144 16,-61 11,-146 -9,-200 -31,-82 -87,-142 -164,-178 -14,-6 -26,-10 -42,-15 -8,-3 -14,-4 -23,-6l-21 -5c0,0 -1,0 -2,-1l-109 0c-6,4 -40,9 -51,13 -95,32 -170,103 -201,197l-10 39c0,1 -1,6 -1,7l-3 8z"/>
  </g>

  <g id="dom">
    <path fill="#282C33" d="M51 402l0 1821c0,68 37,126 98,126l519 0c108,0 98,-149 98,-220l245 0c21,83 158,188 284,188 245,0 399,-316 255,-534 -134,-202 -357,-196 -497,-29 -67,80 3,60 -286,60l0 -366 646 0c18,84 147,188 245,188 103,0 192,-9 269,-110 39,-51 88,-145 81,-232 -8,-102 -37,-165 -93,-225 -141,-151 -356,-129 -465,22 -17,24 -28,65 -57,65l-627 0 0 -366c295,0 96,8 265,125 246,171 499,-41 499,-272 0,-276 -289,-446 -496,-278 -164,133 12,132 -268,132 0,-78 15,-241 -98,-241l-519 0c-73,0 -98,67 -98,147z"/>
  </g>

  <g id="RV" transform="translate(0.000000,40.000000) scale(0.04000,-0.040000)" stroke="none">
    <path fill="#00fd11"  d="M16 991 c-3 -5 81 -229 188 -498 l194 -488 83 0 84 0 162 415 c89
    228 163 421 163 428 0 9 -11 12 -37 10 l-37 -3 -152 -385 -153 -385 -32 0 -32
    0 -181 455 -182 455 -31 3 c-17 2 -34 -1 -37 -7z"/>
    <path fill="#d7fe6c" d="M577 661 l-137 -340 19 -48 19 -48 22 50 c12 28 73 180 136 340 63
    159 120 295 126 302 8 10 52 13 172 13 189 0 230 -10 302 -73 61 -54 84 -104
    84 -187 0 -86 -35 -152 -103 -197 -68 -46 -104 -53 -263 -53 l-141 0 -11 -25
    c-7 -14 -12 -30 -12 -35 0 -6 53 -10 125 -10 l126 0 115 -175 115 -175 40 0
    c32 0 40 3 36 14 -3 8 -51 83 -107 166 -56 83 -103 157 -106 165 -4 9 7 17 33
    24 53 14 126 64 163 111 43 54 63 114 64 195 0 58 -5 81 -27 128 -33 66 -96
    125 -176 164 -55 27 -61 27 -266 31 l-211 4 -137 -341z"/>
  </g>

  <g id="academy">
    <path fill="#51844a" d="M386 993l2 85 57 4 3 46 1153 1 10 -47 55 0 0 -90c-87,-48 -504,-369 -635,-457 -57,21 -537,395 -644,458z"/>
    <path fill="#51844a" d="M1763 1295l90 18 -11 90c-13,-24 -14,-38 -34,-63l-46 -45zm0 0l-73 -18c-6,133 58,137 140,181l-34 118c-14,-74 -60,-176 -126,-157 -21,142 52,156 104,202 -22,40 -37,71 -64,94 9,-83 -16,-166 -92,-187 -27,127 -5,156 67,222l-50 53c-1,2 -4,5 -5,7 -1,2 -3,4 -5,7 39,-14 58,-33 74,-59 54,4 92,8 134,-20 24,-16 64,-53 66,-96 -28,-3 -37,-5 -66,-2 -62,5 -38,10 -54,-3 58,-52 157,13 191,-162 -70,0 -85,10 -134,38 24,-95 38,-41 102,-94 43,-36 54,-68 56,-141 -62,2 -98,38 -126,65 6,-71 20,-8 88,-87 33,-38 38,-81 31,-139l-81 34c39,-34 92,-90 59,-185 -73,28 -93,50 -117,129 -30,-105 35,-235 -96,-279 -74,141 55,170 75,274 -54,-46 -56,-61 -159,-64 7,49 29,83 56,108 39,37 73,27 119,44l8 83c-51,-71 -48,-95 -170,-108 6,33 11,60 28,86 9,12 17,20 25,29l27 28z"/>
    <path fill="#51844a" d="M260 1295l-9 9c-79,76 -29,30 -73,99l-8 -88 89 -19zm0 0c1,-2 4,-6 4,-5 0,0 59,-46 76,-138 -121,13 -119,36 -169,108l5 -83c35,-13 160,-10 176,-152 -69,2 -97,8 -142,49 -2,1 -4,4 -5,5l-11 10c16,-96 34,-58 73,-121 28,-44 26,-114 -1,-156 -147,106 -49,124 -93,282 -24,-78 -45,-101 -118,-129 -33,99 20,149 59,187l-78 -40c-11,80 6,142 74,180 44,25 40,4 43,50 -28,-27 -65,-63 -127,-65 12,214 127,108 158,234 -44,-27 -67,-38 -133,-38 35,176 134,113 191,162 -24,20 -21,-5 -119,5 4,103 123,123 200,116 17,26 35,45 74,59 -16,-28 -37,-41 -57,-69 77,-57 86,-107 66,-219 -74,21 -102,103 -92,187 -26,-23 -43,-55 -64,-95l11 -8c67,-50 110,-74 93,-194 -55,-15 -111,61 -122,156l-41 -116c82,-39 151,-55 144,-180l-73 16z"/>
    <path fill="#51844a" d="M366 1896l1295 0 3 -59c-2,-1 -5,-2 -7,-3 -2,-1 -5,-2 -7,-3 -2,-1 -5,-2 -7,-2l-29 -8c-1,-3 -5,-1 -7,-2l0 -64 -1185 0 -1 71 -56 7 2 63z"/>
    <path fill="#51844a" d="M1538 1207c13,-51 20,17 16,-61l-184 1c-11,61 4,22 14,54l3 401c1,160 -20,43 -19,134l188 1c0,-36 0,-17 -8,-38 -27,-73 -12,-313 -12,-414 0,-25 -3,-55 2,-79z"/>
    <path fill="#51844a" d="M1100 1277c-1,-125 29,-80 16,-131l-181 2c-9,54 4,29 11,48 12,32 5,386 5,443 0,87 -20,29 -19,99l188 1c0,-35 0,-17 -8,-37 -27,-75 -12,-320 -13,-423z"/>
    <path fill="#51844a" d="M666 1593c1,-108 -16,-319 14,-412l2 -35 -181 1c-5,30 -3,13 3,33 31,94 13,309 14,422 1,126 -20,75 -20,134l188 2c0,-46 -9,-22 -18,-64 -4,-18 -2,-60 -2,-80z"/>
    <path fill="#44474b" d="M1763 1295l46 45c20,24 21,39 34,63l11 -90 -90 -18z"/>
    <path fill="#44474b" d="M260 1295l-89 19 8 88c44,-69 -6,-22 73,-99l9 -9z"/>
  </g>

  <g id="incubator">
    <circle fill="#1F1B20" cx="1024" cy="1212" r="682"/>
    <circle fill="#FDFCFC" cx="1024" cy="1212" r="670"/>
    <ellipse fill="#E3350F" cx="756" cy="793" rx="80" ry="81"/>
    <path fill="#1F1B20" d="M719 938l76 0 0 593 -76 0 0 -593zm555 0l76 0 0 593 -76 0 0 -593zm-322 142l0 -142 322 460 0 133 -322 -451zm-76 -142l76 0 0 593 -76 0 0 -593z"/>
  </g>

  <g id="rsschool">
    <path fill="black" d="M1114 1270c72,-33 82,128 33,147 -39,15 -61,-13 -65,-52 -4,-46 0,-80 32,-95zm184 -55c-2,-4 5,-5 -12,-9 -2,8 -4,6 3,6l9 3c3,4 -3,1 8,8l42 12 -13 25c-5,9 -8,17 -11,28 -29,108 27,221 147,191 40,-10 56,-35 72,-71l1 71 179 0 0 -67 -109 0 0 -204 -68 0 -2 70c-25,-47 -34,-61 -89,-75 8,0 0,1 2,-7 8,-3 0,4 9,-3 12,-10 4,-1 6,-10 -8,3 1,-5 -8,3 -12,10 -3,2 -7,10 -20,6 -38,25 -72,32 -46,9 -54,-7 -87,-13zm123 54c73,-30 80,129 31,149 -36,14 -59,-15 -63,-52 -5,-42 -2,-83 32,-97zm-920 58c-22,-16 -90,-32 -97,-39 -27,-26 39,-64 52,1l52 -4 -7 42zm-177 62l0 13c12,27 10,38 28,58 19,21 36,15 56,25l41 0c33,-19 26,8 72,-51 16,22 22,31 46,41l21 8c1,0 2,1 3,2l43 0c25,-13 32,-4 56,-30 16,-18 26,-33 30,-66l-58 -19c-14,28 -12,55 -53,51 -61,-7 -50,-186 27,-151 13,6 17,16 21,33l62 -16c-30,-113 -145,-106 -201,-30 -11,-17 -13,-29 -29,-39 -36,-24 -123,-25 -149,30 -22,46 6,87 31,102 31,18 76,15 90,48 -2,26 -16,37 -41,31 -25,-6 -20,-20 -31,-44l-65 4zm551 -87c-7,-14 -4,-75 -4,-92l-68 0 1 268 67 1 3 -112 76 1c8,31 1,77 4,111l67 0 1 -67c16,27 22,44 49,58 24,13 62,16 91,10 114,-24 117,-247 0,-273 -30,-7 -64,-4 -89,10 -32,17 -31,27 -50,58l-1 -66 -67 0 -2 93 -76 1zm-465 -362c24,0 66,-8 64,29 -2,32 -38,27 -63,27l0 -56zm-69 215l70 1 0 -110c32,2 32,19 44,46 11,24 20,43 29,65l81 0c-14,-41 -40,-96 -69,-119 22,-16 42,-23 48,-57 7,-36 -6,-69 -24,-81 -30,-21 -139,-17 -179,-13l0 269zm946 51c-3,-7 0,-1 -5,-8 -1,-2 -4,-5 -5,-7 -13,-17 -23,-32 -28,-57 -8,-36 -2,-73 9,-106 -8,-4 5,-6 -5,0l-7 6c-18,-63 -112,-42 -124,-84 14,-37 50,-24 58,15l64 -4c14,-86 -130,-108 -172,-47 -28,40 -11,88 17,107 33,22 71,20 96,47 1,29 -10,44 -37,39 -25,-5 -25,-22 -34,-43l-63 3c-5,86 82,106 142,89 28,-8 35,-21 49,-36 6,38 23,78 46,87zm161 -165c-1,42 -20,12 -38,24 -6,4 -9,10 -12,18 28,33 74,-6 77,-37 2,-25 -9,-42 -30,-41 -22,1 -33,22 -48,9 12,-35 38,8 45,-36 -30,-24 -68,12 -69,41 -1,57 56,17 77,22zm-127 6c7,19 19,36 29,52 27,45 -5,27 -18,25 -8,12 -10,9 -14,23 24,34 67,6 69,-28 2,-25 -29,-74 -43,-91 -13,6 -14,9 -24,18zm-48 -54c11,-6 96,-137 202,-74 56,34 72,105 51,176 -7,24 -20,40 -24,57 34,-21 76,-182 -22,-239 -79,-46 -184,17 -206,80zm201 191c13,-7 20,-17 27,-32l-15 13c-5,6 -2,1 -6,7 -5,8 -3,3 -5,12zm-201 -191c-4,3 -6,-8 -14,25 5,-5 4,0 10,-12 4,-7 2,-5 4,-13z"/>
  </g>

  <g id="telegram">
    <path fill="#26A4E3" d="M126 1358c0,85 2,134 23,215 21,83 42,133 83,207 12,21 24,41 38,59 25,35 58,77 88,107 9,9 15,15 25,23l80 66c20,14 37,25 58,38l64 35c70,29 57,27 142,52 84,25 152,25 237,26l4 0c59,0 120,-12 167,-24 43,-11 104,-32 142,-51 44,-22 54,-29 93,-52 10,-6 19,-13 29,-20 10,-7 19,-14 28,-21 9,-7 18,-14 27,-22 21,-19 56,-49 73,-70l22 -26c17,-20 49,-61 62,-83 7,-11 12,-19 18,-30 13,-21 22,-41 34,-63 6,-11 9,-22 15,-34 34,-76 61,-197 61,-278l0 -4c0,-85 -1,-150 -25,-235 -7,-26 -15,-50 -23,-74 -4,-12 -9,-23 -14,-35 -5,-12 -10,-22 -15,-33 -11,-27 -55,-100 -72,-122 -16,-21 -36,-48 -53,-67l-48 -50c-6,-5 -8,-6 -13,-11l-81 -65c-115,-86 -296,-145 -440,-145 -125,0 -179,8 -291,46l-70 28c-46,22 -84,44 -124,72 -20,14 -50,38 -68,55 -37,33 -77,73 -107,113 -50,67 -94,141 -121,221 -10,29 -15,44 -23,76 -12,49 -23,115 -23,174z"/>
    <path fill="#FEFEFE" d="M1088 1243c9,19 -1,22 -19,41l-50 49c-6,6 -11,12 -17,17l-172 163c-8,10 -24,26 -19,47 6,25 48,48 70,63 14,9 26,18 40,27 13,8 26,17 40,27 14,9 26,17 40,27l80 55c22,14 69,42 100,18 23,-19 31,-57 38,-95 15,-81 93,-521 87,-580 -5,-51 -47,-46 -86,-34 -45,14 -146,55 -192,74l-374 160c-31,14 -61,26 -93,40 -30,13 -67,27 -94,41 -42,22 -52,49 -8,68 29,12 69,24 101,32 109,30 123,17 200,-35l240 -161c13,-9 26,-18 40,-26 13,-8 28,-23 48,-18z"/>
  </g>

  <g id="instagram">
    <path fill="#FEFEFE" d="M1088 1243c9,19 -1,22 -19,41l-50 49c-6,6 -11,12 -17,17l-172 163c-8,10 -24,26 -19,47 6,25 48,48 70,63 14,9 26,18 40,27 13,8 26,17 40,27 14,9 26,17 40,27l80 55c22,14 69,42 100,18 23,-19 31,-57 38,-95 15,-81 93,-521 87,-580 -5,-51 -47,-46 -86,-34 -45,14 -146,55 -192,74l-374 160c-31,14 -61,26 -93,40 -30,13 -67,27 -94,41 -42,22 -52,49 -8,68 29,12 69,24 101,32 109,30 123,17 200,-35l240 -161c13,-9 26,-18 40,-26 13,-8 28,-23 48,-18z"/>
    <g>
      <path fill="#C93086" d="M640 1218c5,6 -4,3 10,4 3,7 -3,1 4,-2l12 -3c0,0 1,0 1,0l19 1c10,6 7,-6 6,10 12,-17 18,-12 25,-9 12,3 -2,1 7,0l11 2c9,3 6,-1 10,-10 12,6 24,6 39,3l4 18c16,-80 87,-152 165,-182 138,-54 301,20 351,165 3,8 4,16 7,22l11 -6c9,-4 0,8 3,-1 1,0 2,0 3,2 0,1 4,3 4,3 0,0 1,1 2,2l11 8c0,0 3,0 3,0 0,0 1,0 1,0 2,0 3,-2 5,0 2,2 3,5 3,6 3,-4 -1,-3 8,-3 1,0 2,0 2,0 0,1 0,1 0,2l0 9 17 -3c0,0 7,-3 7,13 1,15 2,1 -1,4 3,-2 1,-2 6,-3 0,0 1,0 2,0l5 0c19,-1 -15,4 6,-2 0,0 1,0 2,0 11,-3 6,5 11,11 4,5 16,20 24,17l15 -11c-2,23 3,39 -4,61 12,-5 3,2 6,-9 3,-11 -1,-77 -2,-86 -5,-46 -15,-78 -33,-118 -13,-30 -37,-70 -57,-94 -65,-76 -150,-131 -255,-147 -118,-18 -224,12 -315,78 -25,19 -57,49 -76,74 -30,39 -54,83 -70,131 -5,16 -6,28 -13,43z"/>
      <path fill="#674FC6" d="M457 568l-25 14c-45,33 -83,70 -113,118 -6,10 -12,14 -12,25 3,3 0,9 8,-7l1 -3c1,0 2,-1 2,0 0,1 1,0 2,0l3 0c0,0 1,0 1,0 0,0 1,0 1,0l6 0c0,0 1,0 1,1 12,4 -6,2 7,0 8,-2 8,4 8,5 2,-16 0,-6 6,-12l0 12c8,-16 7,-5 22,-11l11 -1c0,0 1,0 1,0 16,2 10,-4 25,-1 12,2 -1,5 8,-1 0,0 1,-1 2,-1l4 -3c10,14 -3,4 25,5l2 0c2,0 3,-15 6,7 0,-11 0,-7 3,-15 12,6 6,-4 9,12 6,-20 13,0 21,-6l4 -4c1,-1 1,-1 2,-2 0,0 1,-1 2,-2 1,10 -2,3 5,8l54 -29c40,-18 95,-30 141,-30 17,0 20,-3 38,-3 14,0 31,1 44,0 105,-9 224,-3 334,-3 -4,-6 -14,-4 -21,-3 -10,0 -21,1 -28,-1 -4,8 -39,3 -46,3l-94 -1c-17,1 -29,2 -28,-6 1,-6 7,-3 11,-5 0,0 2,-1 2,-1 0,0 1,0 1,0l9 1c0,0 1,-1 1,-1l2 -2c0,0 1,-1 1,-1l20 -4c0,0 1,0 1,0 0,0 1,0 1,0l17 -2c6,0 2,-3 10,-4 1,0 2,0 3,0l22 -2c0,0 1,0 1,0 11,3 7,-8 24,-5l24 -6c0,0 1,0 1,-1 0,0 1,-1 1,-1 0,0 1,0 1,0l16 -4c0,0 1,0 2,-1l10 -1c41,-2 9,-4 37,-8 0,0 1,0 1,0 9,-1 21,5 28,-2l4 -8c12,4 6,-6 8,8l14 -11c9,5 4,0 10,9 -1,-17 11,-9 23,-12 7,-2 2,1 5,-3 1,-1 1,-1 2,-6 1,0 2,1 2,1l4 8 5 -5c5,-3 4,10 4,-7 10,4 2,3 6,6 3,2 -6,2 2,-1 10,-4 2,6 6,1 5,-6 11,-9 17,-9l12 -2c5,1 4,5 10,0 12,-9 8,12 19,-10 12,4 6,-6 9,9l3 -12c1,0 2,0 2,0l36 -3c0,0 1,0 1,0l21 -3c14,-3 6,-14 28,-10 10,2 -4,4 5,-1l25 -10 11 12c12,-20 24,-6 31,-14 -7,0 -22,-4 -31,-5 -110,-15 -508,-10 -601,-10 13,7 165,4 176,3 -5,9 6,-4 -3,3l-66 10c-25,4 -17,5 -32,10l-30 5c0,0 -1,0 -1,0 0,0 -1,0 -1,0l-7 0c0,0 -1,0 -1,0l-4 0c-13,-2 10,-5 -3,0 -8,3 -6,0 -11,11 -10,-5 -6,4 -9,-9 -7,10 -6,7 -16,8l-5 0c0,0 -1,0 -1,0 -1,0 -2,0 -3,0l-20 9c-11,-5 -5,1 -12,-9 -3,14 -4,7 -10,7l-15 6c-1,0 -3,0 -3,0l-36 2c0,0 -1,0 -1,1l-3 1c-6,1 -8,-3 -16,-5 2,8 4,3 -1,9 -8,-11 10,5 -3,-2l-2 -1c-5,-1 -4,0 -6,6l-12 -9c-9,14 -12,10 -19,8 -26,-4 -19,6 -34,5 0,0 -1,0 -2,0l-4 -1c-6,-1 -6,1 -11,3l-3 0c-1,-2 -9,5 -10,-9l0 12c-1,-1 -2,-2 -2,-2l-4 -4c-4,-4 1,-1 -3,-3l-6 12c-10,-5 -6,4 -9,-9 -4,13 -6,7 -22,7l-38 6c-8,-2 -4,-4 -11,-3 -20,3 17,-7 -5,2l-7 3c-3,-7 -2,-1 -3,-12 -1,11 0,6 -3,12l-4 -3c-16,-10 5,-2 -6,-2 -2,0 3,8 -3,-2 -1,-1 -1,-4 -1,-5 -1,11 0,5 -3,12 -12,-4 -10,-7 -19,-3 -2,-4 -5,6 0,-7z"/>
      <path fill="#D92E7E" d="M1624 1866c7,10 7,16 10,26l3 8c0,1 1,2 2,3 13,16 17,27 22,45 8,26 -7,15 3,37l3 8c4,15 5,7 7,18 16,-3 38,-29 49,-41 16,-16 28,-30 41,-48 14,-19 22,-32 33,-55 29,-58 52,-144 52,-214 0,-17 3,-22 3,-41l3 -132c-6,2 -4,2 -7,0l-1 -3c0,0 0,-1 0,-2l-4 -7c-9,-12 -21,-34 -21,-50 -4,-1 5,-6 -2,3 0,0 -1,2 -2,2 0,-1 -1,2 -2,2 0,-9 2,-7 -4,-12 -6,-5 1,0 -4,-2l-3 -1c-3,-13 6,-3 -10,-23 0,-1 -2,-2 -2,-3 0,0 -1,-1 -1,-1l-7 -9c-3,-5 -2,-3 -4,-5 -4,-4 -2,8 -3,-7 0,0 1,-8 1,-9 -1,3 0,5 -3,5l-7 -4c-10,-8 -1,-11 -7,-18 -5,-6 -1,-3 -6,2l-3 4c-1,-16 2,-1 -7,-17 -9,-18 1,-4 -12,-15l-4 -9c0,0 0,-1 -1,-2 0,-1 -3,-5 -4,-7 -21,-26 -5,-59 -10,-93l-2 -8 0 333c0,20 -3,28 -3,44 -3,101 -2,156 -43,240 -18,37 -30,41 -39,59z"/>
      <path fill="#F56935" d="M649 1395c-11,29 44,121 66,152 87,121 237,182 391,163 20,-2 75,-15 88,-23 6,-14 1,-3 -16,-20 0,-1 -1,-1 -2,-2 -2,8 -2,5 -3,12 1,-7 4,-11 6,-18 -22,-7 -13,5 -16,-5l-2 -6c-1,0 -2,-1 -2,0l-5 0c-4,0 1,4 -4,-3l-22 -10c-11,-7 3,7 -2,-2 -1,-1 -1,-9 -1,-13 -4,4 -7,-6 -5,15l0 -12c0,-1 1,-5 1,-5 0,-9 -6,-12 -14,-11l-4 -2c0,0 0,-1 -1,-1 0,0 -1,-1 -1,-1 0,0 -1,-1 -1,-1l-20 -6c0,0 -1,0 -1,0 0,0 -1,0 -1,0 0,0 -3,0 -3,0 0,-1 2,-4 3,-4l1 -8c-1,0 -2,-1 -2,0l-12 -5c-1,-1 -8,-3 -26,-3 -23,2 -4,1 -12,-5 -47,0 -112,-30 -148,-59 -29,-23 -54,-55 -71,-88 -5,-10 -12,-31 -17,-34 -7,-6 -6,8 -6,-7 0,1 6,-1 -1,2l-3 0c-5,-1 -5,-4 -11,-6 -12,-2 -11,-6 -17,-4l-3 1c-5,2 2,0 -5,3 0,0 -1,1 -2,1 0,0 -1,0 -2,1 0,0 -1,0 -2,0l-8 1c0,0 -1,0 -1,0l-15 1c-3,0 -2,-1 -2,-1 -8,-3 8,1 -3,-1l-13 4c-6,3 -1,1 -3,1 0,0 -1,-1 -2,-1l-9 0c-9,-1 -3,-1 -11,-3 0,0 0,0 0,0 0,0 0,1 0,1l0 2c-4,11 -20,1 -25,0l0 11z"/>
      <path fill="#CE2D94" d="M1697 890l6 73c6,73 6,151 6,225l2 8c6,34 -10,67 10,93 1,1 4,6 4,7 0,0 0,1 1,2l4 9c13,11 4,-3 12,15 8,17 6,2 7,17l3 -4c5,-4 0,-8 6,-2 7,8 -2,10 7,18l7 4c3,0 2,-1 3,-5 0,1 -1,9 -1,9 2,15 0,3 3,7 2,2 1,-1 4,5l7 9c0,0 1,1 1,1 0,0 2,2 2,3 15,20 7,10 10,23l3 1c5,2 -1,-3 4,2 6,5 4,3 4,12 1,-1 2,-3 2,-2 0,1 1,-2 2,-2 7,-9 -1,-4 2,-3 0,17 13,39 21,50l4 7c0,0 0,1 0,2l1 3c3,2 0,1 7,0l-6 -532c-5,5 -7,-7 -4,7 -9,-6 1,0 -4,-5 -7,-6 1,-2 -3,-2l-6 4c0,-1 -1,1 -2,2 -3,-4 -5,-10 -8,-11 -7,-1 -1,0 -5,1l-7 1c-15,-6 -10,-17 -10,-19l-1 -2c0,0 -1,-1 -1,-1 0,0 -1,-1 -1,-1 -2,-5 -2,-3 -2,-9 0,18 2,9 -9,15 -6,-15 -2,-13 0,-27 -2,10 -3,5 -3,21 -5,-5 -10,-10 -11,-17l-9 11c-14,-7 0,-12 -18,-6l-12 1c-10,-7 0,-8 -3,-19 -1,10 0,6 -3,12 -11,-5 -7,4 -9,-12 -3,13 1,4 -9,9 -7,-14 2,-6 -10,-10z"/>
      <path fill="#FED474" d="M478 2047c39,8 85,57 298,56 32,0 43,3 80,3l269 0c-7,-7 -47,-3 -62,-6l-3 0c-4,-1 -7,-8 -11,-10 -3,9 1,5 -3,12 -1,-11 2,-7 0,-13 -3,-8 -13,-8 -18,-14l-10 -8c0,0 -1,-1 -1,-1l-7 -3c-8,-4 0,1 -9,-5 -10,-7 -5,2 -14,-12l-12 6c-1,-13 -4,-11 -15,-15l-18 -6c-5,2 0,-1 -4,3 -3,4 5,2 -2,3 0,-15 0,-12 -6,-21 -10,4 -9,1 -12,15 -1,-12 -4,-14 -14,-18l-13 -3c-13,-1 -1,2 -8,-3 -9,-7 -10,-2 -16,-7 -7,-5 -10,-2 -18,-5 0,0 -1,0 -1,0l-13 -4c-6,-4 1,-1 -5,-3 -8,-4 -11,-2 -21,-6 -2,6 -1,0 -1,6 0,0 1,2 1,3 -9,-5 -2,-4 -7,-4 -10,1 8,8 -3,0l-4 -5c0,12 3,9 -3,12 5,-6 2,-2 3,-12 -12,2 -8,0 -14,9 -1,-6 -1,-8 -6,-9 -9,-3 -8,-5 -15,6l0 -7c0,-1 0,-1 0,-2l-8 0c0,0 -1,0 -1,0 0,0 -1,0 -1,0l-50 1c-1,0 -3,0 -3,0 -8,1 6,0 -6,1 -6,0 -11,-2 -22,4l-17 -2c0,0 -1,0 -1,0l-6 0c0,0 -1,0 -1,0l-14 3c-10,2 -22,-7 -24,11l-13 -3c-5,2 -3,-9 -8,9 0,0 -1,-3 -2,-4 -7,-6 2,-1 -2,0l-20 4c-6,2 6,0 -4,0l-8 1c-14,2 -9,-1 -20,9 -10,9 -11,1 -26,11 0,0 -1,0 -1,0 0,0 -1,0 -1,1l-4 5c0,0 5,-3 -3,1l-14 8c-9,3 -1,-1 -3,3l-2 7z"/>
      <path fill="#9439BA" d="M1070 634c7,2 18,1 28,1 7,0 17,-3 21,3 37,0 75,0 112,0 60,0 157,4 213,11 37,5 60,15 91,24l-5 -16c21,0 10,-1 11,3 1,4 -1,-1 -5,6 16,0 18,7 33,-6 9,3 7,-2 8,9 10,-1 13,-6 21,-3 17,5 -1,11 21,5l28 8c3,1 0,0 6,2 -2,-5 -1,-4 -3,-8 19,2 8,12 18,-3l2 8 11 -7c3,10 -5,3 7,7 14,5 8,-8 21,0 3,1 2,-6 5,8 3,-4 1,-5 7,-6 9,-1 -2,0 12,4 11,3 15,-4 17,-10l10 4c-3,-8 -2,-6 -7,-14 -3,-5 -5,-6 -9,-11 -63,-81 -140,-103 -164,-120l-9 6c-3,9 2,0 -2,2l-15 3c-5,0 5,-6 -3,0 -5,4 -2,-5 -3,9 -8,-11 -3,-6 -11,-3l-19 9c-5,-7 -4,-3 -6,-12l-6 12c-8,-6 -2,-2 -6,-6 0,-1 -2,-2 -2,-4 0,-1 -1,-1 -1,-2l-5 4c-5,10 -3,4 -5,2l-5 11c0,-3 0,-6 0,-9 -1,-6 -1,-3 -3,-6 -1,13 0,5 -6,15 -8,-5 -8,-3 -9,-15l-3 15 -6 -15c0,12 -4,20 -17,21l-4 0c-13,1 -6,5 -18,3l-8 0c-13,5 3,6 -7,1l-5 -1c-3,1 1,-4 -3,3 -2,3 -1,3 -3,6 -9,-7 -5,2 -6,-12 -2,3 -1,1 -3,6 0,1 0,4 0,6l-6 -12c-1,10 -1,9 -6,15 -3,-18 -8,-6 -9,-27l-18 7c-7,-1 3,-1 -4,1 -3,1 -10,-3 -17,0l-4 2c-8,4 -9,-2 -20,2l-15 4c-5,2 -5,0 -2,13 -9,-6 -4,-2 -9,-12 -9,7 -5,-2 -6,12 -23,-15 -11,-3 -25,0l-6 1c0,0 -1,0 -1,1 -9,3 -16,-2 -26,0l-4 1c-5,1 1,1 -6,1 -24,0 -4,1 -23,13l0 -12c0,1 -1,2 -1,2 0,0 -1,2 -1,2l-6 3c0,0 -1,0 -1,0l-6 0c0,0 -1,0 -1,0l-50 11c-5,2 -1,1 -4,2 0,0 -1,0 -1,0l-17 4c0,0 -1,0 -2,0 -5,-1 0,-8 -9,2l-5 9c0,-1 -1,2 -1,2z"/>
      <path fill="#FDC564" d="M391 1986c7,7 12,10 20,17 7,6 13,10 20,15 15,11 30,18 47,30l2 -7c2,-3 -6,0 3,-3l14 -8c8,-4 3,-1 3,-1l4 -5c0,0 1,0 1,-1 0,0 1,0 1,0 15,-11 16,-3 26,-11 11,-10 6,-7 20,-9l8 -1c9,0 -2,2 4,0l20 -4c4,-1 -5,-6 2,0 1,1 2,3 2,4 5,-19 3,-8 8,-9l13 3c2,-18 13,-9 24,-11l14 -3c0,0 1,0 1,0l6 0c0,0 1,0 1,0l17 2c10,-6 15,-4 22,-4 12,0 -2,0 6,-1 1,0 3,0 3,0l50 -1c0,0 1,0 1,0 0,0 1,0 1,0l8 0c0,1 0,1 0,2l0 7c8,-11 6,-9 15,-6 5,1 5,3 6,9 6,-9 2,-6 14,-9 -1,10 2,5 -3,12 6,-3 3,1 3,-12l4 5c11,8 -7,1 3,0 5,0 -2,-1 7,4 -1,-1 -1,-2 -1,-3 0,-6 -1,0 1,-6 9,4 13,2 21,6 5,3 -2,-1 5,3l13 4c0,0 1,0 1,0 8,3 11,0 18,5 6,5 7,0 16,7 7,5 -4,2 8,3l13 3c10,4 13,6 14,18 2,-14 2,-10 12,-15 6,9 6,6 6,21 7,-2 -1,0 2,-3 3,-4 -2,-1 4,-3l18 6c10,4 13,2 15,15l12 -6c9,14 4,6 14,12 9,6 1,1 9,5l7 3c0,0 1,1 1,1l10 8c6,5 15,5 18,14 3,7 -1,2 0,13 4,-8 0,-3 3,-12 4,2 7,9 11,10l3 0c14,3 55,-1 62,6l40 0c3,-11 5,-5 18,-5 -12,-6 -11,6 -9,-15 -3,6 -6,1 -9,-2l-5 -5c0,0 -1,-1 -1,-1 0,0 -1,-1 -1,-1l-8 -8c-15,-13 -8,-12 -22,-21 -7,-4 -4,-2 -8,-8 -4,-6 -2,-4 -5,-6 -18,-14 1,-6 -12,-13 -14,-7 2,3 -9,-3l-11 -8c0,0 -16,-4 -18,-22 -2,3 1,2 -4,3l-11 -4c-9,-5 -19,-9 -23,-21 19,0 84,4 97,-5 -118,0 -360,5 -467,-10 -54,-8 -84,-21 -124,-40 -10,15 10,-3 -7,4l-26 14c-8,6 -16,4 -19,-2 -2,8 -1,9 -8,12 -13,5 12,-3 -4,0l-2 1c0,0 -1,1 -1,1 -7,4 -6,-9 -6,10 -6,-6 -5,10 -6,-12l0 12c-7,-8 -2,8 -6,-12 0,13 -1,10 -5,12 -12,5 -3,7 -17,14 0,0 -1,0 -4,1 -12,9 8,-2 -5,6 -5,3 -3,-1 -13,3 0,0 -4,2 -5,2 -5,3 -2,-5 -7,8z"/>
      <path fill="#DE2C76" d="M1310 1235c5,50 13,64 1,124 -4,19 -9,34 -17,51 -8,20 -22,36 -25,47l5 3c0,0 1,1 1,1l11 3c4,4 4,8 4,13 1,-3 -2,0 2,-2l12 -1 0 15 7 0c0,0 1,0 2,0 0,1 1,1 1,2 0,1 1,2 1,2 1,4 1,3 1,7 0,-18 -1,-2 6,-9 1,8 0,10 4,13l7 4c6,2 2,1 4,1l9 3c6,24 21,19 23,20 0,1 -1,1 -1,3 0,1 -2,4 -2,5 -2,5 -1,-2 -2,7 6,-16 -1,-2 13,2 21,-26 38,-57 52,-90 8,-19 34,-91 25,-114 7,-22 2,-38 4,-61l-15 11c-8,3 -20,-12 -24,-17 -5,-6 0,-14 -11,-11 0,0 -1,0 -2,0 -21,6 13,1 -6,2l-5 0c0,0 -1,0 -2,0 -5,1 -3,1 -6,3 3,-4 2,10 1,-4 -1,-16 -7,-13 -7,-13l-17 3 0 -9c0,-1 0,-2 0,-2 -1,0 -2,0 -2,0 -9,0 -5,0 -8,3 0,-1 -1,-4 -3,-6 -3,-3 -4,0 -5,0 0,0 -1,0 -1,0 0,0 -3,0 -3,0l-11 -8c0,0 -1,-1 -2,-2 -1,-1 -4,-2 -4,-3 0,-1 -2,-1 -3,-2 -3,9 6,-3 -3,1l-11 6z"/>
      <path fill="#8A39A5" d="M253 890l-9 89c-1,15 0,34 0,50 0,18 -3,26 -3,47 0,66 0,132 0,198l2 -115c20,-5 3,-7 13,-24l3 0c7,8 -1,2 9,6 -6,-14 5,-22 24,-18 -4,-9 3,-16 11,-21 0,0 1,0 1,-1 8,-5 7,-3 8,-16 7,10 -2,12 22,-9 5,-5 5,-10 1,-17 13,5 12,19 15,8 3,-10 -3,6 -1,-23l2 4c3,5 3,11 14,7 9,-3 3,-2 7,-8 5,-9 6,-9 13,-7 -1,-24 -4,-15 3,-21 0,-35 3,-63 6,-94 2,-23 10,-69 18,-85 -11,-3 -8,-6 -18,-12 0,0 -3,5 -3,5 -4,8 8,4 -7,8 -12,3 3,0 -9,0l-12 3c-1,0 -2,0 -3,0 -6,1 -1,0 -7,1l-7 3c-20,11 -3,7 -11,4 -11,-4 9,0 -2,-1l-5 2c0,0 -2,0 -2,0l-21 9c0,0 -1,1 -1,1 -14,10 -13,12 -14,19 -4,-5 -6,-8 -12,-12l-8 17c-11,-17 10,13 -2,-4 -3,-4 -1,-2 -4,-5l-4 7c0,0 0,1 -1,2 -3,7 4,-1 -4,7 0,-11 1,-3 -4,-6z"/>
      <path fill="#B033AE" d="M1653 682c1,1 4,3 4,3 0,0 1,1 1,1 10,7 6,7 7,9 -4,6 -11,8 -16,8 -8,0 -9,-2 -15,-11 -7,7 -3,4 -12,9 -17,-26 -29,7 -29,8 5,8 23,19 36,36 33,41 52,80 63,132l5 13c12,4 4,-5 10,10 10,-5 6,4 9,-9 1,16 -2,6 9,12 3,-6 2,-2 3,-12 3,11 -7,13 3,19l12 -1c18,-7 4,-2 18,6l9 -11c1,7 6,13 11,17 0,-15 1,-10 3,-21 -2,13 -6,11 0,27 11,-5 8,4 9,-15 0,6 0,4 2,9 0,0 1,1 1,1 0,0 1,1 1,1l1 2c0,1 -4,12 10,19l7 -1c4,-1 -2,-2 5,-1 4,1 6,7 8,11 1,0 2,-2 2,-2l6 -4c4,-1 -4,-4 3,2 5,5 -4,-1 4,5 -3,-14 -1,-2 4,-7 0,-63 -23,-149 -48,-203 -4,-9 -22,-48 -32,-51l-5 -1c10,7 16,19 11,30 -6,12 1,7 -2,16 -17,6 1,0 -8,0 -12,-1 -2,1 -18,9l-18 -47c-3,10 1,14 0,19 -1,8 -5,8 -11,16 -12,-6 -9,-9 -17,-14 -13,-9 2,5 -14,-1 -6,-17 9,-3 -3,-21 -9,6 -9,9 -17,6 0,0 0,-1 0,-1 -1,-15 7,-11 2,-24l-2 -8c-10,14 2,5 -18,3 2,4 1,3 3,8z"/>
      <path fill="#F47035" d="M245 1567l-1 0c0,48 1,91 7,134 5,37 14,87 28,115l13 -14c0,0 1,-1 1,-2 0,0 1,-1 1,-2 1,10 1,7 4,15 0,-12 5,-21 7,-24l23 -17c6,-3 2,-4 14,-4l6 1c-4,-1 -2,1 -4,-2l6 -7c1,-1 1,2 2,3 7,5 -2,-4 3,4 2,3 1,3 3,8l1 -12 -4 -9 12 -2c0,0 1,-1 1,-1 0,0 4,-9 10,-12 7,-5 0,-1 12,-5 3,4 5,8 9,12 -7,6 -1,-5 0,-9 5,-13 -3,-38 -5,-51 -3,-19 -2,-35 -5,-54l-5 -111c-9,-5 -5,1 -19,2 0,0 -1,0 -1,0l-15 6c0,0 -2,2 -3,2l-36 19c-5,2 1,0 -4,2 -11,4 2,0 -3,1l-2 0c-9,-1 -2,-10 -8,4 -4,9 2,3 -4,9l-4 2c-1,0 -5,1 -5,1 -5,0 -3,1 -7,-4 -1,3 -1,8 -2,9l-4 4c0,0 -1,0 -1,0l-7 1c0,0 -1,1 -1,1 0,0 -1,1 -2,1l-4 3c0,-1 -1,1 -2,2 -6,-12 -2,-11 -7,-18z"/>
      <path fill="#C030A0" d="M1381 866l0 15c0,40 46,86 86,86l21 0c41,0 86,-46 86,-86l0 -21c0,-41 -45,-86 -86,-86 -30,0 -57,3 -81,29 -13,14 -26,37 -26,63z"/>
      <path fill="#A93690" d="M241 1274l0 38 6 4c12,3 18,-4 22,-5 0,0 1,0 1,0 1,0 11,-3 14,-16 6,9 2,5 12,10 15,-23 24,-19 30,-23l2 -2c5,-5 -5,-1 6,-5l3 -1c6,-2 -1,0 6,-3l3 -1c4,-2 7,-3 8,-8 7,-24 -15,10 -1,-26l4 16c0,0 0,2 0,2 0,0 1,-1 1,0 3,10 -2,-1 6,1 0,0 1,0 1,0 0,0 1,0 1,0 4,0 0,-4 9,-1 6,2 -1,4 5,2 1,-8 0,-95 5,-102 0,-23 0,-46 0,-69 0,-26 3,-41 3,-65 -7,6 -4,-3 -3,21 -7,-3 -8,-3 -13,7 -3,6 2,5 -7,8 -11,4 -12,-3 -14,-7l-2 -4c-2,29 4,13 1,23 -4,11 -3,-3 -15,-8 4,8 4,13 -1,17 -25,21 -15,20 -22,9 0,13 0,11 -8,16 0,0 -1,0 -1,1 -8,5 -15,13 -11,21 -19,-4 -29,4 -24,18 -10,-3 -2,2 -9,-6l-3 0c-9,16 7,19 -13,24l-2 115z"/>
      <path fill="#713BB9" d="M308 724c-10,8 -14,23 -20,35 -6,13 -10,26 -15,41 -6,18 -20,67 -20,89 5,3 4,-5 4,6 8,-7 0,1 4,-7 0,0 0,-1 1,-2l4 -7c3,2 2,1 4,5 12,16 -9,-14 2,4l8 -17c5,4 8,7 12,12 1,-7 0,-9 14,-19 0,0 1,-1 1,-1l21 -9c0,0 2,0 2,0l5 -2c11,1 -9,-4 2,1 8,3 -9,7 11,-4l7 -3c6,-2 2,-1 7,-1 1,0 2,0 3,0l12 -3c12,-1 -3,3 9,0 15,-4 3,0 7,-8 0,0 3,-5 3,-5 9,6 7,9 18,12 6,-23 26,-60 38,-77 26,-36 48,-48 56,-59 -7,-5 -3,3 -5,-8 -1,1 -2,2 -2,2 0,0 -1,1 -2,2l-4 4c-8,6 -15,-13 -21,6 -3,-16 3,-6 -9,-12 -3,8 -3,4 -3,15 -3,-22 -4,-7 -6,-7l-2 0c-28,-1 -16,9 -25,-5l-4 3c0,0 -1,1 -2,1 -9,5 4,3 -8,1 -16,-3 -10,3 -25,1 0,0 -1,0 -1,0l-11 1c-15,5 -15,-5 -22,11l0 -12c-6,6 -4,-4 -6,12 0,-1 0,-7 -8,-5 -13,3 5,4 -7,0 0,0 -1,0 -1,-1l-6 0c0,0 -1,0 -1,0 0,0 -1,0 -1,0l-3 0c0,0 -2,1 -2,0 0,-1 -1,0 -2,0l-1 3c-7,16 -5,10 -8,7z"/>
      <path fill="#8145BF" d="M1070 634c1,-1 1,-3 1,-2l5 -9c9,-10 4,-3 9,-2 0,0 1,0 2,0l17 -4c0,0 1,0 1,0 3,-1 -2,0 4,-2l50 -11c0,0 1,0 1,0l6 0c0,0 1,0 1,0l6 -3c0,0 1,-2 1,-2 0,0 1,-2 1,-2l0 12c19,-12 -1,-13 23,-13 7,0 1,0 6,-1l4 -1c10,-3 17,2 26,0 0,0 1,0 1,-1l6 -1c14,-3 2,-16 25,0 1,-14 -3,-5 6,-12 5,10 0,6 9,12 -3,-13 -3,-11 2,-13l15 -4c11,-4 12,2 20,-2l4 -2c7,-2 14,1 17,0 7,-2 -3,-2 4,-1l18 -7c0,21 6,8 9,27 5,-6 5,-4 6,-15l6 12c0,-2 0,-5 0,-6 2,-5 1,-3 3,-6 1,14 -3,5 6,12 2,-3 1,-3 3,-6 4,-7 0,-2 3,-3l5 1c10,5 -6,4 7,-1l8 0c12,2 5,-2 18,-3l4 0c13,-1 17,-8 17,-21l6 15 3 -15c1,12 1,10 9,15 6,-9 5,-2 6,-15 2,3 2,0 3,6 0,3 0,6 0,9l5 -11c2,2 0,8 5,-2l5 -4c0,1 1,1 1,2 0,1 2,3 2,4 3,4 -3,0 6,6l6 -12c2,9 1,5 6,12l19 -9c8,-2 3,-7 11,3 1,-14 -2,-5 3,-9 8,-6 -2,0 3,0l15 -3c4,-2 -1,7 2,-2l9 -6c-12,0 -33,-10 -46,-14 -10,-3 -16,-5 -26,-7 -10,-2 -20,-3 -29,-6 -8,8 -19,-6 -31,14l-11 -12 -25 10c-9,5 4,3 -5,1 -22,-4 -14,7 -28,10l-21 3c0,0 -1,0 -1,0l-36 3c0,0 -1,0 -2,0l-3 12c-3,-15 3,-5 -9,-9 -11,22 -7,1 -19,10 -7,5 -5,1 -10,0l-12 2c-6,0 -12,3 -17,9 -4,5 3,-4 -6,-1 -8,3 1,3 -2,1 -4,-3 4,-2 -6,-6 0,17 1,4 -4,7l-5 5 -4 -8c0,0 -1,-1 -2,-1 0,5 -1,5 -2,6 -3,4 1,1 -5,3 -12,3 -24,-5 -23,12 -6,-9 -1,-4 -10,-9l-14 11c-2,-15 4,-4 -8,-8l-4 8c-7,7 -19,0 -28,2 0,0 -1,0 -1,0 -28,5 4,6 -37,8l-10 1c0,0 -1,0 -2,1l-16 4c0,0 -1,0 -1,0 0,0 -1,1 -1,1 0,0 -1,0 -1,1l-24 6c-18,-3 -13,8 -24,5 0,0 -1,0 -1,0l-22 2c-1,0 -2,0 -3,0 -8,1 -4,4 -10,4l-17 2c0,0 -1,0 -1,0 0,0 -1,0 -1,0l-20 4c0,0 -1,1 -1,1l-2 2c0,0 -1,1 -1,1l-9 -1c0,0 -1,0 -1,0 0,0 -2,1 -2,1 -4,2 -11,-1 -11,5 -1,8 11,6 28,6l94 1c7,0 42,5 46,-3z"/>
      <path fill="#ED524A" d="M1204 1523c-21,0 -41,46 -177,46 8,6 -11,7 12,5 18,0 25,2 26,3l12 5c0,-1 1,0 2,0l-1 8c0,1 -2,4 -3,4 0,0 3,0 3,0 0,0 1,0 1,0 0,0 1,0 1,0l20 6c0,0 1,1 1,1 0,0 1,1 1,1 0,0 0,1 1,1l4 2c8,0 14,2 14,11 0,1 -1,5 -1,5l0 12c-2,-21 2,-11 5,-15 0,4 0,12 1,13 5,9 -9,-5 2,2l22 10c5,8 0,3 4,3l5 0c0,-1 1,0 2,0l2 6c4,10 -5,-1 16,5 -3,6 -5,10 -6,18 2,-7 2,-5 3,-12 1,1 2,2 2,2 17,17 22,7 16,20l59 -28c10,-5 18,-11 27,-17 10,-7 19,-10 23,-20 4,-7 4,-8 10,-15 -21,-14 -23,-25 -28,-32 -10,-13 14,11 -6,-3l-3 -5c0,0 0,-1 -1,-1 0,0 -1,-1 -1,-1 0,0 -2,-1 -2,-2 -18,-13 -13,-15 -21,-16 -13,-1 7,5 -4,0 -10,-7 -9,-12 -6,-21l-8 3c0,0 -1,0 -1,0l-8 -8c-3,-5 -2,5 -3,-9 -7,8 -6,9 -18,10z"/>
      <path fill="#4E63D2" d="M457 568c-5,14 -2,3 0,7 9,-4 8,-1 19,3 3,-7 2,-1 3,-12 0,1 0,4 1,5 6,10 1,2 3,2 11,0 -9,-9 6,2l4 3c3,-6 2,-1 3,-12 1,11 0,5 3,12l7 -3c22,-9 -15,1 5,-2 6,-1 3,1 11,3l38 -6c16,0 19,6 22,-7 2,13 -1,4 9,9l6 -12c4,2 -1,-1 3,3l4 4c1,1 1,2 2,2l0 -12c1,14 10,7 10,9l3 0c5,-2 5,-4 11,-3l4 1c0,0 1,0 2,0 14,2 8,-9 34,-5 7,1 10,5 19,-8l12 9c3,-6 2,-7 6,-6l2 1c13,7 -5,-9 3,2 5,-6 4,-1 1,-9 8,2 11,6 16,5l3 -1c0,0 1,0 1,-1l36 -2c1,0 3,0 3,0l15 -6c5,-1 7,7 10,-7 7,10 1,4 12,9l20 -9c1,0 2,0 3,0 0,0 1,0 1,0l5 0c10,-1 9,2 16,-8 2,13 -1,4 9,9 5,-11 3,-8 11,-11 13,-5 -10,-1 3,0l4 0c0,0 1,0 1,0l7 0c0,0 1,0 1,0 0,0 1,0 1,0l30 -5c15,-5 7,-6 32,-10l66 -10c9,-7 -2,6 3,-3 -11,0 -163,4 -176,-3l-165 6c-62,7 -85,10 -147,30 -19,6 -69,26 -78,37z"/>
      <path fill="#E4415E" d="M1514 1932l14 11c-6,4 -7,3 -15,0 0,1 1,2 1,3l2 6c2,17 4,-13 -1,3 -2,7 -2,-2 1,8 5,15 -2,19 -2,19 0,0 -1,1 -1,2 15,-1 8,-4 18,3 -8,11 3,4 -9,10 6,9 11,9 9,21 0,0 0,1 0,2l-1 17c9,29 7,23 17,23 -1,0 -1,1 -2,1l-8 4 5 9c27,-2 103,-38 125,-58 3,-2 1,0 3,-3 4,-4 1,0 3,-5 -2,-10 -3,-3 -7,-18l-3 -8c-10,-21 5,-10 -3,-37 -5,-18 -10,-28 -22,-45 0,0 -1,-2 -2,-3l-3 -8c-3,-10 -3,-16 -10,-26 -8,3 -15,12 -22,18 -10,8 -16,13 -25,19 -20,13 -37,22 -62,29z"/>
      <path fill="#F15D42" d="M1341 1959c6,4 -2,0 7,2 7,2 6,0 11,5l9 24c7,-5 8,2 8,2 21,25 15,19 10,30 6,-4 -8,-4 5,-1 6,2 6,5 8,9 5,9 3,3 14,7 -3,9 -1,17 6,24 5,5 -2,-2 6,1 2,6 3,13 0,21 4,1 -6,0 4,-1l5 0c0,1 1,1 1,2 2,9 0,8 -3,14 18,0 105,-12 111,-24l-5 -9 8 -4c0,0 1,0 2,-1 -10,0 -8,7 -17,-23l1 -17c0,-1 0,-1 0,-2 2,-12 -3,-12 -9,-21 11,-6 1,1 9,-10 -9,-6 -3,-4 -18,-3 0,-1 1,-2 1,-2 0,0 7,-4 2,-19 -3,-10 -3,-1 -1,-8 4,-17 3,14 1,-3l-2 -6c0,-1 -1,-2 -1,-3 8,3 9,4 15,0l-14 -11c-14,16 -149,27 -173,27z"/>
      <path fill="#FA9D48" d="M1266 2107c28,0 46,-4 83,-3 37,1 25,1 30,-6l-10 1 -12 -20c-21,-36 -23,-12 -18,-34 -1,0 -2,2 -4,0 0,0 -1,-1 -1,-1l-8 -10c-10,-8 -10,-9 -10,-19 -1,0 -7,2 -12,-7l-3 -7c-11,-10 9,5 -3,-1 -11,-6 -6,-4 -13,-18l-8 -10c-7,-6 -1,4 -8,-8 -23,-5 -112,1 -143,1 1,9 -1,0 3,3 14,10 7,12 7,13 12,6 12,3 16,18 8,-17 2,3 7,-12 10,1 7,2 8,3 0,0 1,2 1,2 3,9 -3,9 -3,9 1,22 1,-20 6,10 11,-2 -9,-1 4,-5 7,-2 7,9 7,9l7 5c0,0 1,0 2,0 0,-1 1,0 2,0l24 36c7,13 -5,8 9,19 7,6 -1,6 8,-4 0,11 3,16 16,29 7,8 -12,-4 3,2 2,1 2,0 7,2 1,0 2,1 3,1l6 3z"/>
      <path fill="#FA9D48" d="M360 1764l-1 12c-2,-4 -1,-4 -3,-8 -5,-9 4,1 -3,-4 3,10 7,20 2,31 -11,-5 -1,2 -6,-6 -7,-11 4,-8 -3,-9 0,3 0,6 0,8l-11 14c-6,6 7,0 -4,2 -10,2 -1,-2 -5,-2 -15,33 -19,0 -21,19 -7,-4 -5,6 -6,-7 -2,-8 -3,-5 -4,-15 0,1 -1,2 -1,2 0,0 -1,1 -1,2l-13 14c3,23 47,105 62,113 8,1 11,-1 14,8 2,-7 3,-8 3,-18l4 5c5,4 -2,2 4,-2 8,-5 5,-10 9,5 2,-22 12,-1 14,-16l1 -6c0,0 0,-1 0,-2 5,0 0,-4 4,1 0,0 1,4 2,5 1,-12 2,-6 3,-18 24,11 17,5 21,-6 9,4 17,12 27,-7 3,-7 0,-1 3,-11 6,6 3,-2 6,12 0,-22 -1,-5 5,-12 11,17 6,2 6,-2 0,0 0,-2 0,-2 0,-1 0,-3 1,-4 -16,-27 -26,-30 -44,-71 -2,-5 -4,-8 -5,-12l-6 -14c-13,-4 -1,-1 -11,-5l-9 21c-9,-7 -5,-8 -8,-15 -1,8 -3,9 -3,18 -7,-7 -6,-17 -6,3 -6,-7 -5,10 -5,-12 -2,15 0,6 -5,12l-5 -22z"/>
      <path fill="#DE5159" d="M637 1255c-8,24 -3,77 1,107 2,13 3,27 11,33l0 -11c4,1 21,11 25,0l0 -2c0,0 0,-1 0,-1 0,0 -1,0 0,0 8,2 2,2 11,3l9 0c0,0 1,1 2,1 2,0 -3,3 3,-1l13 -4c10,1 -5,-2 3,1 0,0 0,1 2,1l15 -1c0,0 1,0 1,0l8 -1c0,0 1,0 2,0 0,0 1,0 2,-1 0,0 1,-1 2,-1 7,-3 0,0 5,-3l3 -1c6,-2 5,2 17,4 6,1 6,4 11,6l3 0c7,-3 1,-2 1,-2 0,15 -1,1 6,7 -1,-14 -4,-19 -7,-32 -1,-6 -4,-23 -5,-31 -3,-25 1,-50 3,-70 -1,0 -6,4 -6,4 -14,5 -12,-6 -12,-6 -6,-14 9,0 -1,-5l-2 9c-1,0 -2,0 -2,0 -17,-1 -11,1 -14,-4 -3,-5 -1,-3 -1,-5l-14 13c0,0 -1,1 -1,1 -7,5 -1,2 -9,5 -4,-13 1,-9 -3,-10 -1,-8 -1,2 -1,3l-3 12c-10,-7 -27,-15 -37,-11 -7,3 -5,2 -3,14 -1,-1 -1,-2 -2,-2 -8,-12 0,-4 -7,-8l-19 -2c-7,-3 -4,-2 -7,-8z"/>
      <path fill="#DE5159" d="M246 1554l-2 12 1 0 -1 -18c7,-5 5,-5 14,-9 35,-18 6,-22 36,-17l3 -4c6,-3 10,-2 10,-2 13,-1 -12,8 3,-3 0,0 1,-1 1,-1l2 0c4,1 4,2 0,3 2,-9 -3,3 2,-4l4 -4c21,-16 5,4 10,-6 0,0 0,-4 2,-12 21,9 3,-7 10,7l-1 2c0,-4 -1,-3 4,-4 14,-2 -1,-5 3,1 4,5 2,2 -1,3 2,-6 -1,-8 7,-11l7 0c0,0 1,1 1,1 4,7 4,1 0,5 7,-24 20,-19 25,-21l-2 -106c-1,-7 -5,-5 -14,-11 -5,9 3,8 -5,11 -14,6 -7,-8 -15,6 0,0 0,1 -1,1 -5,7 1,1 -6,2 0,0 -1,0 -1,0 0,0 -2,1 -3,1 0,0 -1,0 -1,1l-13 2c-9,3 -4,4 -10,11 -4,5 0,2 -6,4l-6 1c-16,1 -13,16 -26,18l-12 -1c0,0 -1,0 -1,1l-10 9c-12,8 -10,61 -10,86 0,20 4,29 4,47z"/>
      <path fill="#CB496B" d="M241 1312l0 184c0,10 0,20 0,30l1 23c3,10 -5,-1 4,6 0,-18 -4,-28 -4,-47 0,-25 -2,-77 10,-86l10 -9c0,0 1,0 1,-1l12 1c13,-2 10,-17 26,-18l6 -1c6,-2 1,1 6,-4 6,-7 1,-8 10,-11l13 -2c0,0 1,0 1,-1 1,0 2,-1 3,-1 0,0 1,0 1,0 7,-2 2,5 6,-2 0,0 0,-1 1,-1 7,-13 0,0 15,-6 8,-3 1,-2 5,-11 9,6 13,4 14,11l2 106 0 15 2 9 0 -341c-5,7 -4,94 -5,102 -6,2 0,0 -5,-2 -9,-3 -4,1 -9,1 0,0 -1,0 -1,0 0,0 -1,0 -1,0 -8,-2 -4,9 -6,-1 0,0 -1,0 -1,0 0,-1 0,-2 0,-2l-4 -16c-14,36 8,2 1,26 -2,5 -4,6 -8,8l-3 1c-7,3 0,1 -6,3l-3 1c-11,4 -1,0 -6,5l-2 2c-5,3 -15,0 -30,23 -10,-4 -6,0 -12,-10 -3,12 -13,15 -14,16 0,0 -1,0 -1,0 -3,2 -10,8 -22,5l-6 -4z"/>
      <path fill="#E4415E" d="M1204 1523c12,-1 10,-2 18,-10 1,14 0,5 3,9l8 8c0,0 1,0 1,0l8 -3c-3,8 -4,14 6,21 10,5 -9,-1 4,0 8,0 3,2 21,16 1,0 2,1 2,2 0,0 1,1 1,1 0,0 0,1 1,1l3 5c20,14 -4,-10 6,3 5,6 7,17 28,32 -6,6 -7,8 -10,15 12,-3 32,-23 42,-33l33 -40c-14,-4 -7,-18 -13,-2 1,-10 0,-2 2,-7 0,-1 2,-3 2,-5 0,-1 1,-2 1,-3 -2,-1 -17,4 -23,-20l-9 -3c-2,0 2,1 -4,-1l-7 -4c-4,-3 -4,-6 -4,-13 -7,7 -6,-9 -6,9 0,-4 0,-3 -1,-7 0,-1 -1,-1 -1,-2 0,-1 -1,-1 -1,-2 -1,0 -2,0 -2,0l-7 0 0 -15 -12 1c-5,2 -1,-1 -2,2 0,-4 0,-9 -4,-13l-11 -3c0,0 -1,-1 -1,-1l-5 -3c-5,3 -25,26 -32,33 -6,6 -10,11 -16,16 -10,9 -11,5 -17,17z"/>
      <path fill="#FDB355" d="M1164 2107l102 0 -6 -3c-1,0 -2,-1 -3,-1 -4,-2 -4,-1 -7,-2 -15,-5 4,6 -3,-2 -12,-13 -15,-18 -16,-29 -10,10 -2,10 -8,4 -14,-11 -2,-5 -9,-19l-24 -36c-1,0 -1,-1 -2,0 0,1 -1,0 -2,0l-7 -5c0,0 1,-12 -7,-9 -13,4 7,3 -4,5 -5,-29 -5,12 -6,-10 0,0 6,0 3,-9 0,0 -1,-2 -1,-2 -1,-1 2,-2 -8,-3 -4,15 1,-5 -7,12 -4,-15 -4,-12 -16,-18 0,-1 6,-3 -7,-13 -4,-3 -2,6 -3,-3 31,0 121,-7 143,-1l0 -2 -146 0c-13,9 -78,5 -97,5 4,13 14,16 23,21l11 4c5,-1 2,0 4,-3 2,18 18,22 18,22l11 8c12,6 -5,-5 9,3 13,7 -5,-1 12,13 3,2 1,0 5,6 5,7 1,4 8,8 14,9 7,7 22,21l8 8c0,0 1,1 1,1 0,0 1,1 1,1l5 5c3,3 5,8 9,2 -2,21 -3,9 9,15 -13,0 -15,-6 -18,5z"/>
      <path fill="#F5813B" d="M1269 1962l0 2c7,12 1,2 8,8l8 10c7,14 2,13 13,18 12,6 -7,-9 3,1l3 7c5,9 11,7 12,7 1,11 0,11 10,19l8 10c0,0 1,1 1,1 2,2 3,-1 4,0 -5,22 -3,-2 18,34l12 20 10 -1c16,6 38,3 51,0 4,-6 6,-5 3,-14 0,0 0,-1 -1,-2l-5 0c-9,1 0,2 -4,1 3,-7 2,-15 0,-21 -8,-3 0,4 -6,-1 -7,-7 -9,-15 -6,-24 -11,-4 -9,2 -14,-7 -2,-3 -2,-7 -8,-9 -13,-3 1,-3 -5,1 6,-11 11,-5 -10,-30 0,0 -2,-7 -8,-2l-9 -24c-5,-5 -4,-3 -11,-5 -9,-3 0,2 -7,-2 -29,0 -46,3 -73,3z"/>
      <path fill="#FDB355" d="M342 1929c4,10 0,1 5,9l44 47c5,-12 1,-4 7,-8 0,0 4,-2 5,-2 10,-5 7,0 13,-3 13,-8 -7,3 5,-6 2,-2 3,-1 4,-1 15,-6 5,-9 17,-14 4,-2 5,1 5,-12 4,19 -1,4 6,12l0 -12c1,21 0,6 6,12 0,-19 -1,-6 6,-10 0,0 1,-1 1,-1l2 -1c16,-3 -9,5 4,0 6,-2 6,-4 8,-12 3,6 12,7 19,2l26 -14c17,-7 -3,11 7,-4 -4,-3 -9,-7 -15,-10 -8,-5 -10,-7 -17,-13 -11,-9 -23,-22 -32,-28 -1,1 -1,3 -1,4 0,0 0,1 0,2 0,4 5,19 -6,2 -6,6 -5,-10 -5,12 -2,-13 0,-6 -6,-12 -3,9 1,3 -3,11 -9,20 -18,11 -27,7 -4,11 3,17 -21,6 -1,12 -2,6 -3,18 0,-1 -2,-5 -2,-5 -5,-5 0,-2 -4,-1 0,1 0,1 0,2l-1 6c-2,14 -11,-7 -14,16 -4,-16 -2,-10 -9,-5 -6,4 1,5 -4,2l-4 -5c0,9 -1,11 -3,18 -3,-9 -6,-7 -14,-8z"/>
      <path fill="#E43267" d="M640 1218c0,17 -3,20 -3,37 3,6 0,5 7,8l19 2c7,4 -2,-4 7,8 0,1 1,2 2,2 -1,-12 -3,-11 3,-14 10,-4 27,4 37,11l3 -12c0,0 0,-10 1,-3 4,2 -1,-2 3,10 8,-3 2,0 9,-5 0,0 1,-1 1,-1l14 -13c0,2 -2,0 1,5 3,5 -2,2 14,4 0,0 1,0 2,0l2 -9c10,5 -5,-9 1,5 0,0 -2,12 12,6 0,0 5,-4 6,-4 1,-7 4,-19 6,-25l-4 -18c-14,3 -27,3 -39,-3 -4,9 -1,13 -10,10l-11 -2c-9,1 4,4 -7,0 -7,-2 -14,-8 -25,9 1,-16 4,-4 -6,-10l-19 -1c0,0 -1,0 -1,0l-12 3c-7,3 0,9 -4,2 -13,-1 -4,1 -10,-4z"/>
      <path fill="#DD5C53" d="M245 1567c5,8 1,6 7,18 1,0 2,-2 2,-2l4 -3c0,0 1,-1 2,-1 0,0 1,-1 1,-1l7 -1c0,0 1,0 1,0l4 -4c0,-1 1,-6 2,-9 4,5 2,3 7,4 0,0 4,-1 5,-1l4 -2c7,-6 0,0 4,-9 6,-14 -1,-5 8,-4l2 0c5,0 -8,3 3,-1 4,-1 -1,0 4,-2l36 -19c1,-1 3,-2 3,-2l15 -6c0,0 1,0 1,0 13,-1 10,-7 19,-2l0 -26 -2 -9 0 -15c-5,1 -18,-3 -25,21 3,-4 4,2 0,-5 0,0 -1,-1 -1,-1l-7 0c-8,3 -4,5 -7,11 3,-1 4,3 1,-3 -4,-6 12,-3 -3,-1 -5,1 -4,0 -4,4l1 -2c-8,-13 11,2 -10,-7 -2,7 -1,11 -2,12 -4,10 12,-10 -10,6l-4 4c-5,7 -1,-4 -2,4 4,-1 4,-2 0,-3l-2 0c0,0 -1,1 -1,1 -15,10 10,2 -3,3 0,0 -4,-2 -10,2l-3 4c-30,-5 -1,-1 -36,17 -9,5 -7,5 -14,9l1 18z"/>
      <path fill="#9C38AB" d="M1670 679c5,13 -3,9 -2,24 0,0 0,1 0,1 8,3 8,0 17,-6 12,17 -3,4 3,21 17,6 1,-8 14,1 8,5 5,8 17,14 6,-8 10,-9 11,-16 1,-5 -4,-10 0,-19l18 47c16,-8 6,-10 18,-9 9,0 -9,6 8,0 3,-9 -4,-4 2,-16 6,-11 -1,-23 -11,-30l5 1c-3,-9 5,-3 -6,-9 0,-12 1,-2 -3,-3l-10 -4c-2,6 -6,13 -17,10 -14,-4 -3,-5 -12,-4 -6,1 -5,2 -7,6 -3,-13 -3,-6 -5,-8 -13,-7 -7,5 -21,0 -12,-4 -4,2 -7,-7l-11 7z"/>
      <path fill="#9C38AB" d="M1535 674c4,5 6,4 13,7 7,3 9,5 15,9 11,7 20,14 30,19 0,0 11,-33 29,-8 9,-4 5,-2 12,-9 6,9 7,11 15,11 5,0 12,-2 16,-8 0,-2 3,-2 -7,-9 0,0 -1,-1 -1,-1 -1,0 -4,-2 -4,-3 -5,-2 -3,-1 -6,-2l-28 -8c-22,5 -4,0 -21,-5 -8,-2 -10,2 -21,3 -2,-10 1,-6 -8,-9 -15,13 -17,6 -33,6 4,-7 6,-2 5,-6 -1,-4 10,-2 -11,-3l5 16z"/>
      <path fill="#F5813B" d="M298 1814c2,13 0,3 6,7 2,-19 6,14 21,-19 4,-1 -5,4 5,2 10,-2 -2,4 4,-2l11 -14c1,-3 0,-5 0,-8 8,1 -4,-2 3,9 5,8 -5,0 6,6 5,-11 1,-21 -2,-31 -1,-1 -2,-4 -2,-3l-6 7c1,3 -1,1 4,2l-6 -1c-12,1 -8,1 -14,4l-23 17c-2,3 -7,12 -7,24z"/>
      <path fill="#F5813B" d="M360 1764l5 22c5,-6 3,4 5,-12 0,22 -1,5 5,12 0,-20 -1,-10 6,-3 1,-9 2,-10 3,-18 4,7 -1,8 8,15l9 -21c9,4 -2,1 11,5 0,-6 -1,-10 -3,-15 -6,-17 -1,-6 -9,-12 -1,4 -7,15 0,9 -4,-3 -6,-7 -9,-12 -13,4 -5,1 -12,5 -6,4 -9,12 -10,12 0,0 -1,1 -1,1l-12 2 4 9z"/>
    </g>
  </g>

  <g id="whatsapp">
    <path fill="#FEFEFE" d="M1088 1243c9,19 -1,22 -19,41l-50 49c-6,6 -11,12 -17,17l-172 163c-8,10 -24,26 -19,47 6,25 48,48 70,63 14,9 26,18 40,27 13,8 26,17 40,27 14,9 26,17 40,27l80 55c22,14 69,42 100,18 23,-19 31,-57 38,-95 15,-81 93,-521 87,-580 -5,-51 -47,-46 -86,-34 -45,14 -146,55 -192,74l-374 160c-31,14 -61,26 -93,40 -30,13 -67,27 -94,41 -42,22 -52,49 -8,68 29,12 69,24 101,32 109,30 123,17 200,-35l240 -161c13,-9 26,-18 40,-26 13,-8 28,-23 48,-18z"/>
    <g>
      <path fill="#46C755" d="M344 1423c7,-5 179,-5 205,-5 35,0 69,0 104,0 24,0 88,-3 106,2 -4,-8 -9,-13 -15,-19l-31 -36c-23,-27 -53,-69 -73,-98 -34,-52 -73,-119 -69,-200 2,-40 13,-74 30,-103 14,-23 41,-58 69,-67 13,-5 48,-4 64,-3 20,2 29,15 36,31 18,39 41,100 60,144 10,25 7,29 -4,51 -20,39 -59,57 -54,81 3,18 42,67 53,81 36,47 94,98 144,126 105,58 98,45 130,8 12,-13 21,-25 31,-38 9,-12 18,-31 36,-31 18,0 37,14 53,18l0 -2c130,-1 253,-2 381,-2 32,-140 -10,-318 -82,-440 -227,-378 -768,-432 -1063,-63 -86,108 -137,257 -135,406 0,29 10,143 25,159z"/>
      <path fill="#FEFEFE" d="M1600 1361c-23,117 -61,203 -131,292 -5,6 -9,11 -13,17 -5,6 -9,10 -14,16 -69,83 -193,156 -296,186 -167,49 -352,27 -498,-57 -10,-6 -29,-20 -40,-19 -19,2 -206,58 -238,62 12,-54 33,-118 47,-174 20,-78 25,-48 -9,-105 -18,-32 -64,-125 -63,-156 -15,-16 -24,-130 -25,-159 -2,-149 49,-298 135,-406 295,-369 835,-315 1063,63 73,121 114,300 82,440zm-1416 672c-3,6 -2,0 -3,9l7 -1c47,-16 272,-72 326,-86 112,-30 55,-24 152,15 225,90 463,78 672,-38 64,-35 126,-82 176,-134 133,-137 210,-296 224,-501 13,-183 -49,-375 -156,-513 -9,-11 -16,-19 -24,-29 -39,-51 -108,-110 -163,-147 -334,-228 -783,-148 -1032,153 -163,198 -238,512 -114,795 10,24 22,49 34,70 11,19 7,18 1,39l-56 205c-14,54 -32,109 -45,163z"/>
      <path fill="#2AB73F" d="M1218 1366c10,9 82,40 101,50 20,11 38,13 39,38 1,41 -11,84 -39,112 -39,41 -101,65 -165,59 -66,-6 -174,-48 -225,-75 -40,-21 -81,-49 -112,-77l-57 -52c-19,-4 -83,-2 -106,-2 -35,0 -69,0 -104,0 -26,0 -198,-1 -205,5 -1,31 45,124 63,156 33,57 29,27 9,105 -15,56 -35,120 -47,174 32,-4 219,-60 238,-62 11,-1 30,13 40,19 146,85 331,106 498,57 104,-30 227,-103 296,-186 5,-6 9,-10 14,-16 4,-6 9,-11 13,-17 70,-89 108,-175 131,-292 -129,0 -252,2 -381,2l0 2z"/>
      <path fill="#FEFEFE" d="M759 1420l57 52c32,28 72,56 112,77 51,27 159,69 225,75 64,6 126,-18 165,-59 28,-29 40,-71 39,-112 -1,-25 -19,-27 -39,-38 -19,-10 -90,-41 -101,-50 -16,-4 -35,-19 -53,-18 -17,0 -27,19 -36,31 -10,13 -20,25 -31,38 -32,37 -26,50 -130,-8 -51,-28 -109,-78 -144,-126 -11,-14 -50,-64 -53,-81 -4,-24 34,-42 54,-81 11,-22 15,-26 4,-51 -18,-44 -41,-105 -60,-144 -8,-16 -16,-28 -36,-31 -15,-2 -50,-2 -64,3 -28,9 -55,44 -69,67 -17,28 -28,63 -30,103 -4,81 35,148 69,200 19,29 50,71 73,98l31 36c6,6 11,11 15,19z"/>
      <path fill="#B3B3B3" d="M184 2033c13,-54 30,-109 45,-163l56 -205c6,-22 10,-20 -1,-39 -12,-21 -23,-46 -34,-70 -123,-283 -49,-597 114,-795 249,-301 698,-381 1032,-153 54,37 124,96 163,147 8,10 15,18 24,29 107,139 169,330 156,513 -14,205 -91,364 -224,501 -50,51 -112,99 -176,134 -209,115 -447,127 -672,38 -97,-39 -40,-44 -152,-15 -54,14 -280,70 -326,86 25,46 128,8 166,-2 56,-14 112,-30 169,-44 28,-7 54,-16 90,-8 59,13 97,50 247,72 188,28 367,-15 516,-100 23,-13 43,-27 64,-42 27,-18 37,-29 60,-47l54 -50c6,-6 7,-7 12,-14l38 -43c50,-63 86,-124 117,-199 23,-57 36,-104 47,-165 5,-27 11,-66 11,-96 0,-42 5,-42 0,-99 -3,-32 -7,-63 -12,-94 -20,-110 -64,-211 -123,-299 -14,-21 -29,-41 -45,-61 -8,-11 -16,-18 -25,-28l-25 -28c-61,-61 -107,-93 -179,-137l-71 -36c-75,-31 -123,-45 -205,-59l-72 -7c-19,0 -45,-6 -78,-2 -31,4 -56,3 -94,10 -91,15 -160,38 -240,78 -82,41 -149,94 -213,157 -10,10 -16,18 -25,28 -8,8 -15,19 -23,28l-45 61c-142,213 -172,470 -88,716 21,63 55,101 42,163 -6,29 -15,55 -22,82 -10,36 -51,179 -55,211 -2,12 -2,35 7,46z"/>
    </g>
  </g>

  <g id="viber">
    <g>
      <path fill="#F6F6F7" d="M780 1429c0,0 0,0 0,0l0 0zm-28 70c0,57 -15,146 34,150 21,1 33,-12 42,-21l87 -97c10,-9 42,-3 56,-2 125,6 306,-15 399,-94 92,-79 114,-221 111,-383 -3,-130 -33,-280 -149,-345 -110,-61 -276,-80 -420,-66 -77,8 -134,18 -201,45 -58,24 -103,61 -134,114 -74,129 -90,468 25,602 31,36 61,59 107,79 9,4 39,11 43,19z"/>
    </g>
    <path fill="#AD3EE5" d="M752 1498c-4,-8 -34,-15 -43,-19 -46,-20 -76,-43 -107,-79 -115,-134 -100,-472 -25,-602 31,-54 76,-91 134,-114 66,-27 123,-38 201,-45 144,-14 310,5 420,66 116,65 146,215 149,345 3,162 -19,304 -111,383 -92,79 -274,100 -399,94 -14,-1 -46,-7 -56,2l-87 97c-9,9 -21,22 -42,21 -49,-3 -34,-93 -34,-150zm10 -1146c-251,78 -454,278 -530,530 -18,62 -29,117 -34,184 -9,100 8,200 34,291 80,253 276,451 530,530 167,47 308,48 475,0 252,-77 452,-278 530,-530 48,-169 48,-307 0,-475 -78,-252 -277,-452 -530,-530 -166,-48 -309,-48 -475,0z"/>
    <path fill="#AD3EE5" d="M811 1388c0,0 0,0 0,0m-24 60c0,49 -13,126 30,129 18,1 28,-10 36,-18l74 -83c8,-8 36,-3 48,-2 107,5 263,-13 342,-81 79,-68 98,-190 95,-329 -2,-111 -28,-240 -128,-296 -94,-53 -237,-69 -361,-57 -66,6 -115,16 -172,39 -50,20 -88,52 -115,98 -64,111 -77,402 22,517 27,31 53,51 92,68 8,3 33,10 37,16z"/>
    <path fill="#AD3EE5" d="M1025 956c24,-11 64,10 75,22 13,14 29,49 22,76 -18,8 -22,1 -25,-19 -10,-79 -88,-37 -72,-79zm-293 -11c-4,-39 33,-70 53,-84 45,-32 60,-4 83,25 121,153 -23,98 7,179 43,112 157,171 188,144 24,-21 26,-79 129,3 32,26 64,42 38,83 -14,21 -43,58 -77,61 -42,3 -158,-69 -188,-89 -54,-35 -104,-86 -140,-138 -19,-28 -89,-143 -93,-184zm274 -58c45,-14 119,32 137,51 39,42 58,126 43,139 -25,22 -20,-33 -28,-62 -13,-46 -50,-82 -95,-96 -28,-9 -69,-1 -57,-32zm249 215c-8,4 -10,4 -19,2 -13,-25 11,-172 -144,-241 -13,-6 -34,-12 -49,-15 -19,-3 -45,-3 -59,-8 -9,-29 17,-24 43,-21 39,5 77,17 110,38 22,14 23,16 42,32 20,17 46,55 59,88 10,27 26,95 18,125zm-475 327c0,0 0,0 0,0z"/>
    <path fill="#F6F6F7" d="M732 945c5,41 74,156 93,184 36,52 87,102 140,138 30,20 146,92 188,89 34,-2 64,-40 77,-61 27,-41 -6,-57 -38,-83 -103,-82 -105,-25 -129,-3 -31,27 -145,-32 -188,-144 -31,-80 114,-26 -7,-179 -23,-29 -38,-57 -83,-25 -20,14 -58,45 -53,84z"/>
    <path fill="#F6F6F7" d="M1042 848c16,3 36,9 49,15 155,69 132,216 144,241 10,3 12,2 19,-2 8,-29 -8,-98 -18,-125 -13,-33 -39,-71 -59,-88 -19,-16 -20,-18 -42,-32 -32,-21 -70,-33 -110,-38 -26,-3 -53,-9 -43,21 14,5 41,4 59,8z"/>
    <path fill="#F6F6F7" d="M1158 1015c8,29 3,84 28,62 15,-13 -4,-97 -43,-139 -18,-19 -92,-64 -137,-51 -11,31 30,23 57,32 45,14 81,50 95,96z"/>
    <path fill="#F6F6F7" d="M1097 1035c3,20 7,27 25,19 7,-26 -9,-62 -22,-76 -11,-12 -51,-33 -75,-22 -16,42 62,0 72,79z"/>
    <path fill="#F6F3F6" d="M1767 882c5,-27 -64,-159 -80,-184 -21,-32 -28,-46 -55,-78 -20,-24 -24,-31 -46,-53 -16,-16 -7,-10 -25,-25l-24 -24c-84,-74 -167,-120 -272,-160 -9,-4 -17,-8 -28,-6 253,78 452,278 530,530z"/>
    <path fill="#F6F3F6" d="M232 882c76,-252 279,-452 530,-530 -11,-2 -18,2 -27,5 -8,3 -15,5 -23,9 -41,16 -98,42 -134,66 -32,21 -46,28 -78,55 -24,20 -31,24 -53,46 -16,16 -10,7 -25,25l-39 41c-66,77 -109,160 -145,254 -4,9 -8,17 -6,28z"/>
    <path fill="#F6F3F6" d="M1237 1887c27,5 159,-64 184,-80 55,-37 60,-38 115,-85 6,-5 11,-10 16,-16l108 -124c23,-34 31,-51 51,-83 11,-18 33,-70 42,-91 5,-13 17,-39 15,-52 -78,252 -278,453 -530,530z"/>
    <path fill="#F5F2F6" d="M1237 1887c-167,48 -308,47 -475,0 0,0 1,1 1,1 1,3 -3,2 9,5l42 11c106,22 204,30 314,11 20,-3 38,-7 58,-11 10,-2 46,-8 52,-17z"/>
    <path fill="#F5F2F6" d="M762 352c166,-48 309,-48 475,0l-10 -7c-4,-1 -11,-3 -14,-4 -101,-30 -239,-36 -341,-18 -10,2 -95,18 -105,24 -7,4 -2,-1 -5,5z"/>
    <path fill="#F5F2F6" d="M1767 1357c0,0 1,-1 1,-1l16 -51c4,-19 8,-38 11,-58 18,-110 10,-208 -11,-314 -2,-10 -8,-46 -17,-52 48,169 48,307 0,475z"/>
    <path fill="#F6F3F6" d="M232 1357c-26,-90 -43,-190 -34,-291 -5,0 -5,-6 -4,16l0 83c1,30 12,101 18,127 3,12 5,22 8,34 2,7 5,27 13,31z"/>
    <path fill="#F5F0F7" d="M198 1067c5,-68 16,-123 34,-184 -4,2 -3,0 -5,6 -11,24 -35,152 -28,178z"/>
  </g>

  <g id="address">
    <path fill="black" d="M789 871c0,-124 87,-214 181,-214l49 0c93,0 181,91 181,214 0,91 -90,190 -181,190l-49 0c-91,0 -181,-98 -181,-190zm-247 -16c0,157 196,501 297,651 21,32 38,62 61,96 56,84 49,86 112,86 41,0 194,-269 221,-315 66,-109 136,-240 178,-358 124,-354 -155,-605 -391,-605l-49 0c-226,0 -429,216 -429,445z"/>
    <path fill="black" d="M418 1704c0,189 317,272 519,272l115 0c413,0 673,-249 422,-422 -34,-24 -133,-69 -183,-73 -12,43 -47,60 -58,107 94,2 411,135 31,238 -253,68 -724,20 -724,-122 0,-50 155,-114 214,-115 -11,-47 -46,-64 -58,-107 -80,7 -280,91 -280,223z"/>
  </g>

  <g id="tel">
    <path fill="black" d="M1710 1735c-46,-28 -227,-78 -292,-101 -77,-26 -77,-23 -117,37 -22,34 -62,102 -84,119 -56,-3 -188,-82 -230,-109 -137,-92 -250,-205 -342,-342 -27,-41 -106,-174 -109,-229 29,-38 130,-80 175,-127 -3,-45 -70,-228 -92,-292 -15,-45 -8,-74 -59,-80 -177,-19 -315,37 -340,194 -19,121 31,347 69,455 132,373 425,664 803,786 106,34 345,86 457,54 68,-20 116,-64 144,-120 27,-55 33,-177 16,-244z"/>
    <path fill="black" d="M1479 779c9,-11 -4,-21 37,-19 22,1 49,28 52,51 4,43 -7,30 -21,37 40,38 98,136 122,202 55,150 25,177 74,247 101,8 92,-46 76,-133 -22,-117 -61,-215 -125,-311 -119,-179 -309,-303 -526,-345 -84,-16 -148,-31 -140,75 89,63 262,21 450,196z"/>
    <path fill="black" d="M1029 814c58,43 102,31 174,61 105,44 200,138 245,242 30,69 23,125 64,181 125,10 89,-103 49,-207 -16,-40 -34,-74 -56,-107 -84,-126 -236,-232 -391,-251 -73,-9 -90,12 -85,82z"/>
    <path fill="black" d="M1348 1290c73,-146 -207,-383 -300,-317 -41,30 -22,85 25,101 85,29 146,67 173,159 19,62 33,78 102,56z"/>
    <path fill="#1C1C1C" d="M1547 849c13,-7 25,7 21,-37 -2,-24 -29,-50 -52,-51 -41,-2 -28,8 -37,19 7,11 0,4 14,19 6,7 10,9 18,17 16,16 18,21 36,34z"/>
  </g>

  <g id="mail">
    <path fill="#020202" d="M405 2023c0,0 396,-361 443,-384 51,40 114,135 205,135 93,0 152,-94 204,-135 47,23 384,327 443,386l-1295 -2zm1365 -823l2 767c-54,-24 -268,-233 -337,-287 -44,-34 -69,-57 -104,-98l439 -382zm-1434 -1l440 382 -441 385 1 -768zm235 -507l963 0 0 608 -353 302c-122,120 -135,118 -260,1l-351 -303 0 -538 1 -69zm1041 296c46,31 107,73 132,115l-131 113 0 -228zm-1250 115c13,-21 3,-9 19,-27l112 -88 0 227 -131 -113zm558 -493c131,-137 135,-135 265,1l-64 3 -96 1 -105 -5zm-424 6c-18,172 33,222 -52,304 -46,44 -165,122 -190,183 0,154 -20,800 7,899 35,132 211,104 353,104l903 0c148,0 308,25 330,-128 21,-149 12,-739 -1,-904 -53,-28 -45,-34 -88,-74 -33,-31 -65,-48 -98,-80 -85,-81 -35,-132 -52,-304 -270,-15 -240,54 -425,-122 -163,-155 -254,5 -355,85 -77,61 -210,30 -332,37z"/>
    <path fill="#FEFEFE" d="M1352 1251c-40,114 -197,144 -311,134 -486,-41 -259,-750 167,-561 234,104 128,461 -84,426 -70,-11 -7,-24 -69,-10 -164,37 -216,-94 -143,-226 76,-138 185,-73 211,-73 32,0 36,-14 94,-6l-49 256c150,-47 158,-238 26,-310 -305,-166 -525,330 -227,432 221,76 271,-69 387,-63zm-781 -490l0 538 351 303c126,117 138,119 260,-1l353 -302 0 -608 -963 0 -1 69z"/>
    <path fill="#FDFDFD" d="M405 2023l1295 2c-59,-58 -396,-363 -443,-386 -52,41 -111,135 -204,135 -91,0 -154,-95 -205,-135 -47,24 -443,384 -443,384z"/>
    <path fill="#FEFEFE" d="M1331 1582c35,41 60,64 104,98 70,54 283,263 337,287l-2 -767 -439 382z"/>
    <polygon fill="#FEFEFE" points="335,1967 776,1582 336,1199 "/>
    <path fill="#1B191A" d="M991 1180c-31,-26 -31,-20 -27,-77 1,-17 13,-59 19,-71 24,-52 54,-57 115,-42 32,106 -32,262 -107,190zm362 71c-116,-7 -166,138 -387,63 -298,-102 -78,-598 227,-432 133,72 124,263 -26,310l49 -256c-58,-8 -62,7 -94,6 -25,0 -135,-65 -211,73 -72,132 -21,263 143,226 63,-14 -1,-2 69,10 212,34 318,-322 84,-426 -426,-190 -653,520 -167,561 114,10 272,-20 311,-134z"/>
    <path fill="#FDFDFD" d="M991 1180c75,72 139,-85 107,-190 -61,-15 -90,-11 -115,42 -6,12 -18,54 -19,71 -4,57 -4,51 27,77z"/>
    <path fill="#FDFDFD" d="M921 611l105 5 96 -1 64 -3c-130,-136 -134,-138 -265,-1z"/>
    <path fill="#FCFBFC" d="M1613 1216l131 -113c-25,-42 -86,-84 -132,-115l0 228z"/>
    <path fill="#FDFDFD" d="M362 1103l131 113 0 -227 -112 88c-16,18 -6,6 -19,27z"/>
  </g>

</svg>
