<?xml version="1.0" encoding="UTF-8"?>
<!DOCTYPE svg PUBLIC "-//W3C//DTD SVG 1.1//EN" "http://www.w3.org/Graphics/SVG/1.1/DTD/svg11.dtd">
<!-- Creator: CorelDRAW -->
<svg xmlns="http://www.w3.org/2000/svg" xml:space="preserve" width="210mm" height="297mm" version="1.1" style="shape-rendering:geometricPrecision; text-rendering:geometricPrecision; image-rendering:optimizeQuality; fill-rule:evenodd; clip-rule:evenodd"
viewBox="0 0 21000 29700"
 xmlns:xlink="http://www.w3.org/1999/xlink"
 xmlns:xodm="http://www.corel.com/coreldraw/odm/2003">
 <defs>
  <style type="text/css">
   <![CDATA[
    .fil0 {fill:#E53924}
   ]]>
  </style>
 </defs>
 <g id="Слой_x0020_1">
  <metadata id="CorelCorpID_0Corel-Layer"/>
  <polygon class="fil0" points="-10307.29,8073.35 -10378.94,8075.34 -10042.92,8917.98 -9900.21,8919.63 -9616.58,8192.88 -9688.84,8192.88 -9950.79,8853.42 -9995.95,8853.42 "/>
  <path class="fil0" d="M-9974.47 8735.66c-0.2,-0.06 -0.39,-0.53 -6.03,-14.75 -5.64,-14.22 -16.72,-42.19 -22.25,-56.16 -5.52,-13.97 -5.49,-13.94 -4.95,-16.18 0.54,-2.23 1.58,-6.73 40.12,-103.02 38.53,-96.28 114.57,-284.36 152.57,-378.4 38.01,-94.05 37.99,-94.06 40.89,-94.07 2.9,-0.01 8.73,-0.01 61.09,-0.04 52.37,-0.04 151.27,-0.11 205.74,0.53 54.48,0.64 64.53,1.99 73.53,3.57 9,1.57 16.94,3.35 28.84,7.39 11.9,4.04 27.75,10.32 42.11,17.19 14.35,6.87 27.21,14.33 40.28,22.58 13.07,8.24 26.35,17.28 37.49,27.29 11.14,10.01 20.14,21.01 27.42,29.45 7.29,8.44 12.86,14.33 18.28,21.68 5.43,7.34 10.71,16.14 15.21,24.19 4.5,8.05 8.22,15.35 12,24.5 3.79,9.14 7.65,20.14 10.38,29.22 2.73,9.08 4.33,16.25 5.4,24.89 1.07,8.63 1.61,18.75 2.09,27.33 0.49,8.59 0.92,15.66 0.4,26.44 -0.51,10.79 -1.97,25.28 -3.89,37.08 -1.91,11.79 -4.27,20.88 -6.66,29.36 -2.4,8.47 -4.83,16.32 -8.27,24.75 -3.45,8.43 -7.91,17.43 -11.85,24.88 -3.95,7.44 -7.38,13.33 -11.87,19.62 -4.5,6.28 -10.08,12.95 -15.22,19.24 -5.14,6.28 -9.85,12.17 -15.08,17.89 -5.24,5.72 -10.99,11.26 -16.77,16.37 -5.79,5.1 -11.6,9.76 -17.21,14.1 -5.6,4.33 -10.98,8.33 -16.93,12.36 -5.95,4.03 -12.46,8.1 -19.39,12.17 -6.93,4.07 -14.28,8.15 -21.19,11.58 -6.91,3.43 -13.37,6.21 -21.31,8.58 -7.95,2.36 -17.38,4.33 -25.3,6.09 -7.93,1.77 -14.36,3.34 -17.79,4.13 -3.42,0.78 -3.85,0.78 29.19,50.71 33.05,49.93 99.56,149.79 132.87,199.77 33.3,49.99 33.39,50.11 33.41,50.15 0.03,0.03 -0.02,-0.03 -13,0.2 -12.98,0.24 -38.89,0.77 -51.84,1.06 -12.95,0.29 -12.95,0.33 -12.99,0.29 -0.03,-0.05 -0.09,-0.18 -32.41,-48.86 -32.33,-48.67 -96.91,-145.89 -129.21,-194.5 -32.29,-48.61 -32.29,-48.61 -32.43,-48.61 -0.13,0 -0.41,0 -36.87,0 -36.46,0 -109.1,0 -145.6,0 -36.5,0 -36.85,0 -36.99,-0.12 -0.14,-0.12 -0.07,-0.36 0.57,-2.52 0.64,-2.16 1.86,-6.24 5.8,-16.51 3.95,-10.26 10.63,-26.71 14.06,-35.16 3.43,-8.44 3.6,-8.87 3.92,-9.11 0.31,-0.23 0.77,-0.26 3.3,-0.24 2.53,0.03 7.15,0.11 43.34,0.13 36.2,0.01 103.97,-0.04 142.15,-0.84 38.17,-0.81 46.74,-2.39 57.67,-4.35 10.92,-1.96 24.21,-4.32 34.92,-7.46 10.71,-3.14 18.85,-7.07 26.41,-10.63 7.55,-3.57 14.51,-6.77 22.23,-11.09 7.71,-4.32 16.17,-9.75 24.54,-16.42 8.36,-6.67 16.63,-14.56 24.13,-22.42 7.5,-7.85 14.23,-15.66 19.77,-23.68 5.55,-8.02 9.91,-16.24 14.08,-24.62 4.16,-8.37 8.13,-16.9 11.43,-26.14 3.31,-9.24 5.95,-19.19 7.78,-29.47 1.84,-10.27 2.86,-20.87 2.95,-29.9 0.08,-9.03 -0.78,-16.49 -1.86,-25.23 -1.09,-8.74 -2.4,-18.76 -4.11,-27.99 -1.71,-9.23 -3.83,-17.66 -7.03,-26.79 -3.2,-9.13 -7.49,-18.94 -12.11,-27.64 -4.62,-8.7 -9.58,-16.27 -17.29,-24.91 -7.72,-8.64 -18.18,-18.34 -26.63,-26.53 -8.45,-8.19 -14.88,-14.86 -25.59,-22.13 -10.71,-7.26 -25.71,-15.11 -37.92,-20.81 -12.21,-5.69 -21.64,-9.23 -29.14,-11.58 -7.49,-2.36 -13.07,-3.54 -21.06,-5.11 -8,-1.57 -18.43,-3.53 -29.14,-4.71 -10.72,-1.18 -21.71,-1.57 -65.18,-1.29 -43.48,0.27 -119.42,1.21 -157.31,1.79 -37.89,0.58 -37.73,0.8 -41.01,8.19 -3.27,7.39 -9.99,21.95 -48.59,118.95 -38.59,96.99 -109.07,276.43 -146.12,369.11 -37.06,92.68 -40.7,98.61 -42.62,101.76 -1.93,3.14 -2.15,3.49 -2.35,3.43z"/>
 </g>
</svg>
